<?xml version="1.0" encoding="UTF-8"?>
<svg width="196px" height="142px" viewBox="0 0 196 142" version="1.1" xmlns="http://www.w3.org/2000/svg" xmlns:xlink="http://www.w3.org/1999/xlink">
    <title>编组 18</title>
    <defs>
        <path d="M1.75177727,0 L54.9765332,0 C55.944013,-3.39285754e-15 56.7283104,0.784297399 56.7283104,1.75177727 L56.7283104,118.329892 C56.7283104,121.232331 54.3754182,123.585224 51.4729786,123.585224 L1.75177727,123.585224 C0.784297399,123.585224 -7.69696307e-16,122.800926 0,121.833446 L0,1.75177727 C-1.18482113e-16,0.784297399 0.784297399,-4.26316893e-15 1.75177727,0 Z" id="path-1"></path>
        <rect id="path-3" x="0" y="0" width="105.154917" height="61.4061135" rx="2.31234601"></rect>
        <filter x="-14.3%" y="-24.4%" width="128.5%" height="148.9%" filterUnits="objectBoundingBox" id="filter-4">
            <feOffset dx="0" dy="0" in="SourceAlpha" result="shadowOffsetOuter1"></feOffset>
            <feGaussianBlur stdDeviation="5" in="shadowOffsetOuter1" result="shadowBlurOuter1"></feGaussianBlur>
            <feColorMatrix values="0 0 0 0 0.716969777   0 0 0 0 0.746565645   0 0 0 0 0.813156349  0 0 0 0.477618878 0" type="matrix" in="shadowBlurOuter1"></feColorMatrix>
        </filter>
    </defs>
    <g id="数据分析" stroke="none" stroke-width="1" fill="none" fill-rule="evenodd">
        <g id="9.7优化" transform="translate(-2931.000000, -3974.000000)">
            <g id="编组-18" transform="translate(2932.000000, 3975.177302)">
                <rect id="蒙版" stroke-opacity="0.414427857" stroke="#FFFFFF" stroke-width="0.576" fill="#F3F3F3" x="-0.288" y="-0.288" width="192.9283" height="140.398698" rx="7.00710912"></rect>
                <g id="编组-4" opacity="0.900000036" transform="translate(0.000000, 0.244874)">
                    <rect id="矩形" fill="#FFFFFF" x="31.6071854" y="14.1884372" width="99.6204476" height="123.585224" rx="1.75177727"></rect>
                    <g id="编组-58" opacity="0.300000012" transform="translate(38.741285, 22.975204)" fill="#E5EAF1">
                        <rect id="矩形备份-68" opacity="0.400000006" x="0" y="0" width="75.4071443" height="5.51965066" rx="2.75982533"></rect>
                        <rect id="矩形备份-71" opacity="0.400000006" x="0" y="37.9475983" width="75.4071443" height="5.51965066" rx="2.75982533"></rect>
                        <rect id="矩形备份-75" opacity="0.400000006" x="0" y="75.8951965" width="75.4071443" height="5.51965066" rx="2.75982533"></rect>
                        <rect id="矩形备份-69" opacity="0.400000006" x="0" y="13.1091703" width="75.4071443" height="5.51965066" rx="2.75982533"></rect>
                        <rect id="矩形备份-72" opacity="0.400000006" x="0" y="50.3668122" width="75.4071443" height="5.51965066" rx="2.75982533"></rect>
                        <rect id="矩形备份-76" opacity="0.400000006" x="0" y="88.3144105" width="75.4071443" height="5.51965066" rx="2.75982533"></rect>
                        <rect id="矩形备份-70" opacity="0.400000006" x="0" y="25.5283843" width="75.4071443" height="5.51965066" rx="2.75982533"></rect>
                        <rect id="矩形备份-73" opacity="0.400000006" x="0" y="63.4759825" width="75.4071443" height="5.51965066" rx="2.75982533"></rect>
                        <rect id="矩形备份-77" opacity="0.400000006" x="0" y="101.423581" width="75.4071443" height="5.51965066" rx="2.75982533"></rect>
                    </g>
                    <g id="编组-45" transform="translate(133.817864, 14.188437)">
                        <mask id="mask-2" fill="white">
                            <use xlink:href="#path-1"></use>
                        </mask>
                        <use id="蒙版" fill="#FFFFFF" xlink:href="#path-1"></use>
                        <g opacity="0.800000012" mask="url(#mask-2)">
                            <g transform="translate(5.235677, 100.344314)">
                                <rect id="矩形备份-57" stroke="#ECF1F8" stroke-width="0.7299072" fill="#FFFFFF" x="0.3649536" y="0.3649536" width="44.9294646" height="27.5583024" rx="2.31234601"></rect>
                                <rect id="矩形备份-42" stroke="none" fill="#E5EAF1" x="3.78576304" y="3.12834318" width="5.98559832" height="2.39617775" rx="1.19808888"></rect>
                                <path d="M15.3034376,-1.90125883 C15.8288042,-1.90125883 16.254698,-1.47536505 16.254698,-0.949998443 L16.254698,19.4386745 C16.254698,19.9640411 15.8288042,20.3899349 15.3034376,20.3899349 C14.778071,20.3899349 14.3521773,19.9640411 14.3521773,19.4386745 L14.3521773,-0.949998443 C14.3521773,-1.47536505 14.778071,-1.90125883 15.3034376,-1.90125883 Z" id="矩形备份-40" stroke="none" fill="#6DB1FF" transform="translate(15.303438, 9.244338) rotate(-270.000000) translate(-15.303438, -9.244338) "></path>
                                <path d="M17.7123247,1.90216681 C18.2376913,1.90216681 18.6635851,2.32806059 18.6635851,2.85342719 L18.6635851,28.0598743 C18.6635851,28.5852409 18.2376913,29.0111347 17.7123247,29.0111347 C17.1869581,29.0111347 16.7610643,28.5852409 16.7610643,28.0598743 L16.7610643,2.85342719 C16.7610643,2.32806059 17.1869581,1.90216681 17.7123247,1.90216681 Z" id="矩形备份-63" stroke="none" fill="#6DB1FF" transform="translate(17.712325, 15.456651) rotate(-270.000000) translate(-17.712325, -15.456651) "></path>
                                <path d="M14.5843669,11.2424373 C15.1097335,11.2424373 15.5356273,11.6683311 15.5356273,12.1936977 L15.5356273,31.1442292 C15.5356273,31.6695958 15.1097335,32.0954895 14.5843669,32.0954895 C14.0590003,32.0954895 13.6331065,31.6695958 13.6331065,31.1442292 L13.6331065,12.1936977 C13.6331065,11.6683311 14.0590003,11.2424373 14.5843669,11.2424373 Z" id="矩形备份-64" stroke="none" fill="#6DB1FF" transform="translate(14.584367, 21.668963) rotate(-270.000000) translate(-14.584367, -21.668963) "></path>
                                <path d="M20.3189562,-4.47067929 C20.8443228,-4.47067929 21.2702166,-4.04478551 21.2702166,-3.51941891 L21.2702166,26.9002913 C21.2702166,27.4256579 20.8443228,27.8515516 20.3189562,27.8515516 C19.7935896,27.8515516 19.3676959,27.4256579 19.3676959,26.9002913 L19.3676959,-3.51941891 C19.3676959,-4.04478551 19.7935896,-4.47067929 20.3189562,-4.47067929 Z" id="矩形备份-65" stroke="none" fill="#FFC825" transform="translate(20.318956, 11.690436) rotate(-270.000000) translate(-20.318956, -11.690436) "></path>
                                <path d="M10.4137564,11.6468332 C10.939123,11.6468332 11.3650168,12.072727 11.3650168,12.5980936 L11.3650168,23.2074042 C11.3650168,23.7327708 10.939123,24.1586645 10.4137564,24.1586645 C9.88838984,24.1586645 9.46249606,23.7327708 9.46249606,23.2074042 L9.46249606,12.5980936 C9.46249606,12.072727 9.88838984,11.6468332 10.4137564,11.6468332 Z" id="矩形备份-66" stroke="none" fill="#FFC825" transform="translate(10.413756, 17.902749) rotate(-270.000000) translate(-10.413756, -17.902749) "></path>
                                <path d="M7.28579861,20.9871037 C7.81116521,20.9871037 8.23705899,21.4129975 8.23705899,21.9383641 L8.23705899,26.291759 C8.23705899,26.8171256 7.81116521,27.2430194 7.28579861,27.2430194 C6.760432,27.2430194 6.33453822,26.8171256 6.33453822,26.291759 L6.33453822,21.9383641 C6.33453822,21.4129975 6.760432,20.9871037 7.28579861,20.9871037 Z" id="矩形备份-67" stroke="none" fill="#FFC825" transform="translate(7.285799, 24.115062) rotate(-270.000000) translate(-7.285799, -24.115062) "></path>
                            </g>
                        </g>
                    </g>
                    <g id="编组-25" opacity="0.800000012" transform="translate(139.053541, 82.794760)">
                        <rect id="矩形备份-56" stroke="#ECF1F8" stroke-width="0.7299072" fill="#FFFFFF" x="0.3649536" y="0.3649536" width="44.9294646" height="27.5583024" rx="2.31234601"></rect>
                        <rect id="矩形备份-42" fill="#E5EAF1" x="3.78576304" y="2.39617775" width="5.98559832" height="2.39617775" rx="1.19808888"></rect>
                        <g id="编组-57" transform="translate(13.362720, 4.792356)">
                            <g id="饼图备份-6">
                                <path d="M10.1752999,10.1837473 L16.1560386,18.4225728 C19.7222621,15.8293424 21.2145145,11.2327315 19.8523383,7.03679664 C18.4901622,2.84086181 14.5833946,0 10.1752999,0 L10.1752999,10.1837473 Z" id="路径" fill="#51A2FF" fill-rule="nonzero"></path>
                                <path d="M10.1753002,10.1837482 L3.68948512,18.0304603 C7.26846259,20.9937817 12.398214,21.1551286 16.1560386,18.4225728 L10.1753002,10.1837482 Z" id="路径" fill="#FFC825"></path>
                                <path d="M10.1752996,10.1837482 L0.180487531,8.27550372 C-0.514965987,11.9243186 0.829775512,15.6626782 3.68948512,18.0304603 L10.1752996,10.1837482 Z" id="路径" fill="#FFC825"></path>
                                <path d="M10.1752994,10.1837477 L4.72324067,1.58532514 C2.35107373,3.09203635 0.706941469,5.51337382 0.180487531,8.27550372 L10.1752994,10.1837477 Z" id="路径" fill="#55D191" fill-rule="nonzero"></path>
                                <path d="M10.1752999,10.1837473 L10.1752999,0 C8.24446968,0 6.35349457,0.549849193 4.72324067,1.58532514 L10.1752999,10.1837473 Z" id="路径" fill="#55D191" fill-rule="nonzero"></path>
                            </g>
                            <ellipse id="椭圆形备份-7" fill="#FCFDFF" cx="10.3999771" cy="9.95911379" rx="5.38703849" ry="5.39139995"></ellipse>
                        </g>
                    </g>
                    <path d="M3.63460711e-12,12.1082915 L29.8010605,12.1082915 L29.8010605,139.301843 L7.88299776,139.301843 C3.52933831,139.301843 3.63602846e-12,135.772504 3.63460711e-12,131.418845 L3.63460711e-12,12.1082915 L3.63460711e-12,12.1082915 Z" id="矩形" fill="#EFF3F5"></path>
                    <rect id="矩形" fill-opacity="0.594322151" fill="#FFFFFF" x="3.63460711e-12" y="23.2092564" width="29.8010605" height="10.8249831"></rect>
                    <path d="M6.13122048,0 L186.221079,0 C189.607259,-6.22031096e-16 192.3523,2.74504091 192.3523,6.13122048 L192.3523,12.1082915 L192.3523,12.1082915 L0,12.1082915 L0,6.13122048 C-1.30286582e-15,2.74504091 2.74504091,6.22031096e-16 6.13122048,0 Z" id="矩形" fill="#D4D9DF"></path>
                    <ellipse id="椭圆形备份-26" fill="#FFFFFF" cx="10.3852181" cy="6.52074081" rx="2.2576561" ry="2.25520481"></ellipse>
                    <ellipse id="椭圆形备份-27" fill="#FFFFFF" cx="19.4158424" cy="6.52074081" rx="2.2576561" ry="2.25520481"></ellipse>
                    <ellipse id="椭圆形备份-28" fill="#FFFFFF" cx="28.4464668" cy="6.52074081" rx="2.2576561" ry="2.25520481"></ellipse>
                    <rect id="矩形备份-51" fill-opacity="0.404172884" fill="#FFFFFF" x="7.22449951" y="16.8946829" width="16.2551239" height="3.60832769" rx="1.80416385"></rect>
                    <rect id="矩形备份-52" fill="#D7DCE1" x="4.5153122" y="26.8175841" width="21.6734985" height="3.60832769" rx="1.80416385"></rect>
                    <rect id="矩形备份-53" fill-opacity="0.404172884" fill="#FFFFFF" x="7.22449951" y="37.6425672" width="16.2551239" height="3.60832769" rx="1.80416385"></rect>
                    <rect id="矩形备份-54" fill-opacity="0.404172884" fill="#FFFFFF" x="7.22449951" y="48.4675502" width="16.2551239" height="3.60832769" rx="1.80416385"></rect>
                    <rect id="矩形备份-59" fill-opacity="0.404172884" fill="#FFFFFF" x="7.22449951" y="70.1175164" width="16.2551239" height="3.60832769" rx="1.80416385"></rect>
                    <rect id="矩形备份-55" fill-opacity="0.404172884" fill="#FFFFFF" x="7.22449951" y="59.2925333" width="16.2551239" height="3.60832769" rx="1.80416385"></rect>
                    <rect id="矩形备份-60" fill-opacity="0.404172884" fill="#FFFFFF" x="7.22449951" y="80.9424995" width="16.2551239" height="3.60832769" rx="1.80416385"></rect>
                </g>
                <g id="编组-60" transform="translate(78.866188, 17.700427)">
                    <g id="矩形">
                        <use fill="black" fill-opacity="1" filter="url(#filter-4)" xlink:href="#path-3"></use>
                        <use fill="#FFFFFF" fill-rule="evenodd" xlink:href="#path-3"></use>
                    </g>
                    <text id="销售总金额" font-family="PingFangSC-Semibold, PingFang SC" font-size="4.20426547" font-weight="500" line-spacing="4.62469202" fill="#545454">
                        <tspan x="5.26280171" y="10.2365224">销售总金额</tspan>
                    </text>
                    <text id="门店1" font-family="PingFangSC-Regular, PingFang SC" font-size="3.1531991" font-weight="normal" line-spacing="5.04511857" fill="#707481">
                        <tspan x="9.30059109" y="15.4908292">门店1</tspan>
                    </text>
                    <rect id="矩形" fill="#469CFF" fill-rule="nonzero" x="5.25774584" y="14.4045755" width="2.10309834" height="2.08549065" rx="1.00902369"></rect>
                    <rect id="矩形备份-27" fill="#FFC825" x="22.1455303" y="14.4045755" width="2.10309834" height="2.08549065" rx="1.00902369"></rect>
                    <text id="门店2" font-family="PingFangSC-Regular, PingFang SC" font-size="3.1531991" font-weight="normal" line-spacing="5.04511857" fill="#707481">
                        <tspan x="27.4415157" y="15.4908292">门店2</tspan>
                    </text>
                    <rect id="矩形" fill="#4C9FFF" fill-rule="nonzero" x="8.71528523" y="32.7164675" width="7.2373165" height="22.2931759" rx="1.156173"></rect>
                    <rect id="矩形备份-44" fill="#4C9FFF" fill-rule="nonzero" x="32.3473391" y="27.8982649" width="7.2373165" height="27.1113784" rx="1.156173"></rect>
                    <rect id="矩形备份-46" fill="#4C9FFF" fill-rule="nonzero" x="55.979393" y="34.1547369" width="7.2373165" height="20.8549065" rx="1.156173"></rect>
                    <rect id="矩形备份-48" fill="#4C9FFF" fill-rule="nonzero" x="79.6114469" y="29.9837556" width="7.2373165" height="25.0258878" rx="1.156173"></rect>
                    <rect id="矩形备份-43" fill="#FFC825" x="18.0204064" y="22.6845383" width="7.2373165" height="32.3251051" rx="1.156173"></rect>
                    <rect id="矩形备份-45" fill="#FFC825" x="41.6524603" y="42.4966995" width="7.2373165" height="12.5129439" rx="1.156173"></rect>
                    <rect id="矩形备份-47" fill="#FFC825" x="65.2845142" y="48.7531714" width="7.2373165" height="6.25647195" rx="1.15617303"></rect>
                    <rect id="矩形备份-49" fill="#FFC825" x="88.9165681" y="38.3257182" width="7.2373165" height="16.6839252" rx="1.156173"></rect>
                </g>
            </g>
        </g>
    </g>
</svg>