<?xml version="1.0" encoding="UTF-8"?>
<svg width="20px" height="20px" viewBox="0 0 20 20" version="1.1" xmlns="http://www.w3.org/2000/svg" xmlns:xlink="http://www.w3.org/1999/xlink">
    <title>编组</title>
    <defs>
        <linearGradient x1="100%" y1="13.5727521%" x2="50%" y2="99.6107552%" id="linearGradient-1">
            <stop stop-color="#5F81FD" offset="0%"></stop>
            <stop stop-color="#3965FF" offset="100%"></stop>
        </linearGradient>
        <path d="M4.02541993,8.12750077 L4.02541993,8.39618917 C4.02541993,8.51095705 4.12492645,8.60486471 4.25130754,8.60486471 L4.87249848,8.60486471 C4.99620724,8.60486471 5.09838609,8.51095705 5.09838609,8.39618917 L5.09838609,8.11967513 C5.09838609,7.51710098 5.61470063,7.01365565 6.26279135,7.00843448 C6.91625194,7.00322554 7.44870131,7.49624076 7.44870131,8.10402386 L7.44870131,8.1770713 C7.40836424,8.60486471 7.09910494,8.96223961 6.67959937,9.09527546 L6.6177576,9.11353121 C6.16866731,9.26221834 5.88362286,9.60394196 5.77336399,10.0421777 C5.74916174,10.1386898 5.73571185,10.2378187 5.73571185,10.339552 L5.73571185,10.7830089 C5.73571185,10.8977768 5.83521837,10.9916844 5.96159946,10.9916844 L6.58279039,10.9916844 C6.70649916,10.9916844 6.80867801,10.8977768 6.80867801,10.7830089 L6.80867801,10.339552 C6.80867801,10.1908648 6.86246497,10.0760847 7.01036337,10.0421777 L7.06415034,10.0291309 C7.29003795,9.95349121 7.49979074,9.84131558 7.68534127,9.70567526 C8.05644235,9.42917344 8.33341939,9.04571716 8.45712815,8.60226024 C8.49208275,8.47705003 8.51360005,8.34661865 8.5243524,8.21358279 L8.5243524,8.10664055 C8.5243524,7.92925534 8.50015016,7.75448683 8.45443061,7.59014842 C8.20434075,6.68758331 7.33037503,6.0171951 6.28699359,6.00936946 C5.04461173,6.00154382 4.02541993,6.96670182 4.02541993,8.12750077 Z M6.23638995,11.5497453 L6.2121877,11.5497453 C5.8464565,11.5497453 5.55334463,11.8366772 5.55334463,12.1888309 L5.55334463,12.2123078 C5.55334463,12.5670782 5.84915404,12.8514057 6.2121877,12.8514057 L6.23638995,12.8514057 C6.60210855,12.8514057 6.89522041,12.5644615 6.89522041,12.2123078 L6.89522041,12.1888309 C6.89522041,11.8366772 6.59942361,11.5497453 6.23638995,11.5497453 Z" id="path-2"></path>
        <filter x="-44.5%" y="-14.6%" width="188.9%" height="158.5%" filterUnits="objectBoundingBox" id="filter-3">
            <feOffset dx="0" dy="1" in="SourceAlpha" result="shadowOffsetOuter1"></feOffset>
            <feGaussianBlur stdDeviation="0.5" in="shadowOffsetOuter1" result="shadowBlurOuter1"></feGaussianBlur>
            <feColorMatrix values="0 0 0 0 0   0 0 0 0 0.231794791   0 0 0 0 0.698649089  0 0 0 0.445674443 0" type="matrix" in="shadowBlurOuter1"></feColorMatrix>
        </filter>
    </defs>
    <g id="数据分析" stroke="none" stroke-width="1" fill="none" fill-rule="evenodd">
        <g id="9.7优化" transform="translate(-795.000000, -631.000000)">
            <g id="编组-3" transform="translate(763.000000, 460.000000)">
                <g id="编组-8" transform="translate(32.000000, 169.000000)">
                    <g id="编组" transform="translate(0.000000, 2.000000)">
                        <rect id="矩形" x="0" y="0" width="20" height="20"></rect>
                        <g id="编组-68备份-5" transform="translate(1.000000, 2.000000)">
                            <path d="M11.4690092,0.447189037 C14.8551983,0.447189037 17.6002469,3.1919522 17.6002469,6.57778914 C17.6002469,9.96362609 14.8551983,12.7083892 11.4690092,12.7083892 C10.5069296,12.7083892 9.59660513,12.4868226 8.78628888,12.0919374 L5.98494107,13.0249732 C5.56578206,13.1646784 5.11273315,12.9381363 4.973028,12.5189773 C4.91829531,12.3547621 4.91830085,12.1772246 4.97304379,12.0130128 L5.91650505,9.18128383 C5.545256,8.39105148 5.33777147,7.5086481 5.33777147,6.57778914 C5.33777147,3.1919522 8.0828201,0.447189037 11.4690092,0.447189037 Z" id="形状结合备份" fill="#74C0FF" transform="translate(11.297573, 6.725257) rotate(-94.000000) translate(-11.297573, -6.725257) "></path>
                            <path d="M6.47903192,3.19078163 C9.865221,3.19078163 12.6102696,5.93554479 12.6102696,9.32138174 C12.6102696,12.7072187 9.865221,15.4519818 6.47903192,15.4519818 C5.51695237,15.4519818 4.60662787,15.2304152 3.79631162,14.83553 L0.994963805,15.7685658 C0.575804792,15.908271 0.122755881,15.6817289 -0.0169492605,15.2625698 C-0.0716819529,15.0983547 -0.0716764139,14.9208172 -0.0169334747,14.7566054 L0.926527785,11.9248764 C0.555278738,11.1346441 0.347794207,10.2522407 0.347794207,9.32138174 C0.347794207,5.93554479 3.09284283,3.19078163 6.47903192,3.19078163 Z" id="形状结合" fill="url(#linearGradient-1)"></path>
                            <g id="形状结合" fill-rule="nonzero">
                                <use fill="black" fill-opacity="1" filter="url(#filter-3)" xlink:href="#path-2"></use>
                                <use fill="#FFFFFF" xlink:href="#path-2"></use>
                            </g>
                        </g>
                    </g>
                </g>
            </g>
        </g>
    </g>
</svg>