<?xml version="1.0" encoding="UTF-8"?>
<svg width="60px" height="60px" viewBox="0 0 60 60" version="1.1" xmlns="http://www.w3.org/2000/svg" xmlns:xlink="http://www.w3.org/1999/xlink">
    <title>编组 55</title>
    <defs>
        <rect id="path-1" x="0" y="0" width="25.9431151" height="25.8545455" rx="5.36264118"></rect>
        <filter x="-84.8%" y="-42.5%" width="246.5%" height="247.0%" filterUnits="objectBoundingBox" id="filter-2">
            <feOffset dx="-3" dy="8" in="SourceAlpha" result="shadowOffsetOuter1"></feOffset>
            <feGaussianBlur stdDeviation="5" in="shadowOffsetOuter1" result="shadowBlurOuter1"></feGaussianBlur>
            <feColorMatrix values="0 0 0 0 1   0 0 0 0 0.692094678   0 0 0 0 0.262745098  0 0 0 0.417712658 0" type="matrix" in="shadowBlurOuter1"></feColorMatrix>
        </filter>
    </defs>
    <g id="数据分析" stroke="none" stroke-width="1" fill="none" fill-rule="evenodd">
        <g id="9.7优化" transform="translate(-3006.000000, -4235.000000)">
            <g id="编组-55" transform="translate(3036.060717, 4256.687273) rotate(-20.000000) translate(-3036.060717, -4256.687273) translate(3023.089160, 4243.760000)">
                <g id="矩形">
                    <use fill="black" fill-opacity="1" filter="url(#filter-2)" xlink:href="#path-1"></use>
                    <use fill="#FF9543" fill-rule="evenodd" xlink:href="#path-1"></use>
                </g>
                <g id="eliminate-stroke" transform="translate(5.461708, 5.443062)" fill="#FFFFFF" fill-rule="nonzero">
                    <rect id="矩形" opacity="0" x="0" y="0" width="15.0196982" height="14.9684211"></rect>
                    <path d="M12.2035048,3.82318908 L11.2647737,2.98432895 L13.0045505,1.07585526 C13.0877927,0.984190313 13.2042586,0.929365453 13.3281736,0.923513755 C13.4520886,0.917662058 13.5732346,0.961266058 13.6648012,1.04467593 L13.899484,1.25360526 C14.0897614,1.42827888 14.1037073,1.7229703 13.9307701,1.9147154 L12.2035048,3.82318908 Z M11.5776792,7.83346881 L7.09993163,3.86061014 C7.00706854,3.77851581 6.95088898,3.6629053 6.94384071,3.53939452 C6.93679244,3.41588375 6.97945744,3.29467102 7.06238239,3.20261355 L7.16564281,3.08412329 C8.226409,1.90223197 10.2478198,1.97084698 11.6715523,3.23692105 C13.0952847,4.50299513 13.3894303,6.49566618 12.3286641,7.68067105 L12.2254037,7.79604776 C12.0550365,7.98073964 11.76832,7.99730414 11.5776792,7.83346881 Z M8.65822532,3.56124171 L11.7028531,6.27426803 C11.8499112,5.61315789 11.5401299,4.77742593 10.8548562,4.16620565 C10.1695825,3.55498538 9.28405097,3.3429425 8.64258958,3.56124171 L8.65822532,3.56124171 Z M6.08924088,5.46347368 L10.1038713,9.07460526 C9.77514681,10.2931548 9.65976661,11.5590771 9.76280385,12.8167105 C9.49057182,12.8354211 9.22460289,12.8478899 8.9680066,12.8478899 C5.63551105,12.8478899 4.08660467,11.0610346 3.52650487,10.1722846 L3.80812421,9.68893908 L4.66236955,8.22016277 L3.00081543,7.84595224 L2.45008827,7.72120565 C2.29855011,7.21539424 2.22366696,6.68986331 2.22791702,6.16200487 C3.25427284,6.10898684 4.88766502,5.94683382 6.08924088,5.4697154 M1.04511578,5.31690302 C0.881018122,6.44001927 1.02035476,7.58642937 1.44877017,8.63802144 C1.48767315,8.73101642 1.56926374,8.79954962 1.66781721,8.82201316 L2.64095872,9.04029776 C2.66088347,9.04442625 2.67755002,9.05795141 2.68564331,9.07656 C2.6937366,9.09516858 2.69224599,9.11653687 2.68164685,9.13385039 L2.19036777,10.0007763 C2.14251695,10.0915664 2.14251695,10.1999994 2.19036777,10.2907895 C2.50328793,11.0205 4.27748978,14.0921399 8.9680066,14.0921399 C9.54295352,14.090263 10.1170347,14.0475395 10.6858846,13.9642943 C10.9335382,13.9242993 11.1066459,13.6983845 11.0801517,13.4497549 C10.7954081,11.1109391 11.2241002,9.59538645 11.4462568,8.99976316 C11.5152291,8.8209134 11.4653096,8.61818013 11.3210975,8.4914654 L6.53044452,4.18180263 C6.38192582,4.05107499 6.16794512,4.02503911 5.99222889,4.11631579 C4.85636421,4.67763158 2.40941481,4.86785039 1.48007099,4.91775487 C1.25711771,4.9280195 1.07373056,5.09630957 1.04511578,5.31690302 Z" id="形状"></path>
                </g>
            </g>
        </g>
    </g>
</svg>