<?xml version="1.0" encoding="UTF-8"?>
<svg width="48px" height="48px" viewBox="0 0 48 48" version="1.1" xmlns="http://www.w3.org/2000/svg" xmlns:xlink="http://www.w3.org/1999/xlink">
    <title>编组 56</title>
    <defs>
        <rect id="path-1" x="0" y="0" width="16.6034079" height="16.558952" rx="3.39144081"></rect>
        <filter x="-81.3%" y="-63.4%" width="298.8%" height="299.3%" filterUnits="objectBoundingBox" id="filter-2">
            <feOffset dx="3" dy="6" in="SourceAlpha" result="shadowOffsetOuter1"></feOffset>
            <feGaussianBlur stdDeviation="4.5" in="shadowOffsetOuter1" result="shadowBlurOuter1"></feGaussianBlur>
            <feColorMatrix values="0 0 0 0 0.457532631   0 0 0 0 0.699146439   0 0 0 0 1  0 0 0 0.5 0" type="matrix" in="shadowBlurOuter1"></feColorMatrix>
        </filter>
    </defs>
    <g id="数据分析" stroke="none" stroke-width="1" fill="none" fill-rule="evenodd">
        <g id="9.7优化" transform="translate(-2979.000000, -4148.000000)">
            <g id="编组-56" transform="translate(3003.256292, 4165.187773) rotate(31.000000) translate(-3003.256292, -4165.187773) translate(2994.954588, 4156.908297)">
                <g id="矩形备份-16" fill-rule="nonzero">
                    <use fill="black" fill-opacity="1" filter="url(#filter-2)" xlink:href="#path-1"></use>
                    <use fill="#4C9FFF" xlink:href="#path-1"></use>
                </g>
                <g id="编组-5" transform="translate(4.269475, 2.743224)">
                    <rect id="矩形" x="0" y="0" width="9.96204476" height="9.93537118"></rect>
                    <g id="保存_save-(2)" transform="translate(0.158101, 1.672496)">
                        <path d="M5.86570176,0 C5.96385338,0 6.05834633,0.0371552379 6.13008911,0.103958813 L7.62523153,1.4961665 C7.70370555,1.56923789 7.74825703,1.67151005 7.74825703,1.77858323 L7.74825703,6.76157205 C7.74825703,7.2950542 7.31463929,7.72751092 6.7797249,7.72751092 L0.968532129,7.72751092 C0.433625081,7.72751092 0,7.29505185 0,6.76157205 L0,0.965938865 C0,0.432466381 0.433627428,0 0.968532129,0 L5.86570176,0 Z M5.71356474,0.772751092 L0.968532129,0.772751092 C0.861551847,0.772751092 0.774825703,0.859245025 0.774825703,0.965938865 L0.774825703,6.76157205 C0.774825703,6.86827122 0.861547504,6.95475983 0.968532129,6.95475983 L6.7797249,6.95475983 C6.88671487,6.95475983 6.97343133,6.86827555 6.97343133,6.76157205 L6.97343133,1.94656 L5.71356474,0.772751092 Z" id="路径" fill="#FFFFFF" fill-rule="nonzero"></path>
                        <path d="M4.37190669,0.0378407284 L4.37029893,1.46445516 C4.37029893,1.53011968 4.28357656,1.58334291 4.1765925,1.58334291 L2.6269411,1.58334291 C2.51995704,1.58334291 2.43323467,1.53011968 2.43323467,1.46445516 L2.43323467,0.0378407284" id="路径"></path>
                        <path d="M3.87573628,9.07197998e-13 C4.08986856,9.07197998e-13 4.26338956,0.173251017 4.26314914,0.386809816 L4.26154137,1.81298997 C4.26154137,2.14175797 3.97396899,2.31825328 3.68042209,2.31825328 L2.13077068,2.31825328 C1.83722379,2.31825328 1.54965141,2.14175797 1.54965141,1.81298997 L1.54965141,0.386375546 C1.54965141,0.172986224 1.72310205,9.07197998e-13 1.93706426,9.07197998e-13 L3.87573628,9.07197998e-13 Z M3.48749049,0.772751092 L2.32447711,0.772751092 L2.32447711,1.54550218 L3.48671566,1.54550218 L3.48749049,0.772751092 Z" id="路径" fill="#FFFFFF" fill-rule="nonzero"></path>
                        <path d="M5.83364578,3.51522064 C6.04760799,3.51522064 6.22105863,3.72392423 6.22105863,3.98137317 C6.22105863,4.2388221 6.04760799,4.44752569 5.83364578,4.44752569 L1.95951726,4.44752569 C1.74555505,4.44752569 1.57210441,4.2388221 1.57210441,3.98137317 C1.57210441,3.72392423 1.74555505,3.51522064 1.95951726,3.51522064 L5.83364578,3.51522064 Z" id="路径" fill="#FFFFFF" fill-rule="nonzero"></path>
                        <path d="M3.89818928,5.06072282 C4.11215149,5.06072282 4.28560214,5.26942642 4.28560214,5.52687535 C4.28560214,5.78432428 4.11215149,5.99302787 3.89818928,5.99302787 L1.95951726,5.99302787 C1.74555505,5.99302787 1.57210441,5.78432428 1.57210441,5.52687535 C1.57210441,5.26942642 1.74555505,5.06072282 1.95951726,5.06072282 L3.89818928,5.06072282 Z" id="路径" fill="#FFFFFF" fill-rule="nonzero"></path>
                    </g>
                </g>
            </g>
        </g>
    </g>
</svg>