<?xml version="1.0" encoding="UTF-8"?>
<svg width="9px" height="10px" viewBox="0 0 9 10" version="1.1" xmlns="http://www.w3.org/2000/svg" xmlns:xlink="http://www.w3.org/1999/xlink">
    <title>形状结合</title>
    <defs>
        <linearGradient x1="26.8958011%" y1="17.2480389%" x2="91.2051996%" y2="104.23583%" id="linearGradient-1">
            <stop stop-color="#27E5FF" offset="0%"></stop>
            <stop stop-color="#1020FF" offset="100%"></stop>
        </linearGradient>
    </defs>
    <g id="数据分析" stroke="none" stroke-width="1" fill="none" fill-rule="evenodd">
        <g id="统计分析" transform="translate(-1166.000000, -5316.000000)" fill="url(#linearGradient-1)">
            <g id="编组-17" transform="translate(58.000000, 5078.962646)">
                <g id="编组-7备份" transform="translate(777.000000, 214.037354)">
                    <g id="编组-3备份-11" transform="translate(1.000000, 0.000000)">
                        <g id="编组-6备份-3" transform="translate(193.000000, 11.000000)">
                            <path d="M141.303904,19.9270643 L140.417409,21.5479554 C140.311405,21.7417754 140.06835,21.8129646 139.87453,21.7069609 C139.807414,21.670254 139.752231,21.6150713 139.715525,21.5479554 L138.82903,19.9270643 L138.82903,19.9270643 L137.208139,19.0405695 C137.014319,18.9345659 136.94313,18.6915108 137.049133,18.4976909 C137.08584,18.4305749 137.141023,18.3753923 137.208139,18.3386854 L138.82903,17.4521906 L138.82903,17.4521906 L139.715525,15.8312995 C139.821528,15.6374795 140.064583,15.5662903 140.258403,15.672294 C140.325519,15.7090009 140.380702,15.7641836 140.417409,15.8312995 L141.303904,17.4521906 L141.303904,17.4521906 L142.924795,18.3386854 C143.118615,18.444689 143.189804,18.6877441 143.0838,18.881564 C143.047093,18.94868 142.991911,19.0038626 142.924795,19.0405695 L141.303904,19.9270643 L141.303904,19.9270643 Z M144.823826,14.4469868 L144.327284,15.3548768 C144.263682,15.4711687 144.117849,15.5138823 144.001557,15.4502801 C143.961288,15.4282559 143.928178,15.3951463 143.906154,15.3548768 L143.409612,14.4469868 L143.409612,14.4469868 L142.501722,13.9504452 C142.38543,13.886843 142.342717,13.74101 142.406319,13.624718 C142.428343,13.5844485 142.461453,13.5513389 142.501722,13.5293147 L143.409612,13.0327732 L143.409612,13.0327732 L143.906154,12.1248832 C143.969756,12.0085912 144.115589,11.9658777 144.231881,12.0294799 C144.272151,12.0515041 144.30526,12.0846137 144.327284,12.1248832 L144.823826,13.0327732 L144.823826,13.0327732 L145.731716,13.5293147 C145.848008,13.5929169 145.890721,13.73875 145.827119,13.8550419 C145.805095,13.8953115 145.771985,13.9284211 145.731716,13.9504452 L144.823826,14.4469868 L144.823826,14.4469868 Z" id="形状结合"></path>
                        </g>
                    </g>
                </g>
            </g>
        </g>
    </g>
</svg>