<?xml version="1.0" encoding="UTF-8"?>
<svg width="121px" height="121px" viewBox="0 0 121 121" version="1.1" xmlns="http://www.w3.org/2000/svg" xmlns:xlink="http://www.w3.org/1999/xlink">
    <title>编组 2</title>
    <defs>
        <circle id="path-1" cx="60.5" cy="60.5" r="60.5"></circle>
        <rect id="path-3" x="71" y="0" width="91" height="38.5542169" rx="4"></rect>
        <filter x="-12.6%" y="-29.8%" width="125.3%" height="159.7%" filterUnits="objectBoundingBox" id="filter-4">
            <feMorphology radius="1" operator="dilate" in="SourceAlpha" result="shadowSpreadOuter1"></feMorphology>
            <feOffset dx="0" dy="0" in="shadowSpreadOuter1" result="shadowOffsetOuter1"></feOffset>
            <feGaussianBlur stdDeviation="3.5" in="shadowOffsetOuter1" result="shadowBlurOuter1"></feGaussianBlur>
            <feComposite in="shadowBlurOuter1" in2="SourceAlpha" operator="out" result="shadowBlurOuter1"></feComposite>
            <feColorMatrix values="0 0 0 0 0.699500809   0 0 0 0 0.748003083   0 0 0 0 0.942012179  0 0 0 1 0" type="matrix" in="shadowBlurOuter1"></feColorMatrix>
        </filter>
    </defs>
    <g id="高级数据源" stroke="none" stroke-width="1" fill="none" fill-rule="evenodd" opacity="0.800000012">
        <g id="数据流编辑页" transform="translate(-967.000000, -343.000000)">
            <g id="编组-2" transform="translate(967.000000, 343.000000)">
                <mask id="mask-2" fill="white">
                    <use xlink:href="#path-1"></use>
                </mask>
                <use id="蒙版" fill-opacity="0.812151715" fill="#FFFFFF" xlink:href="#path-1"></use>
                <g mask="url(#mask-2)">
                    <g transform="translate(-33.000000, 42.000000)">
                        <g id="矩形备份-4" stroke="none" fill="none">
                            <use fill="black" fill-opacity="1" filter="url(#filter-4)" xlink:href="#path-3"></use>
                            <rect stroke="#FFFFFF" stroke-width="1" fill="#87A2FF" fill-rule="evenodd" x="70.5" y="-0.5" width="92" height="39.5542169" rx="4"></rect>
                        </g>
                        <line x1="0.144578313" y1="18.3001095" x2="69.313253" y2="18.577218" id="路径" stroke="#4A5D9B" stroke-width="2" fill="none"></line>
                        <path d="M74.4023552,13.498716 L80.9350596,23.0008315 C81.2479449,23.4559373 81.1326523,24.078517 80.6775465,24.3914023 C80.5108482,24.5060074 80.3133113,24.5673604 80.1110177,24.5673604 L67.0456088,24.5673604 C66.4933241,24.5673604 66.0456088,24.1196451 66.0456088,23.5673604 C66.0456088,23.3650668 66.1069617,23.1675299 66.2215669,23.0008315 L72.7542713,13.498716 C73.0671566,13.0436102 73.6897363,12.9283176 74.1448421,13.2412029 C74.2457181,13.3105551 74.3330029,13.39784 74.4023552,13.498716 Z" id="三角形" stroke="#4A5D9B" stroke-width="2" fill="#FFFFFF" fill-rule="evenodd" stroke-linejoin="round" transform="translate(73.578313, 18.433735) rotate(90.000000) translate(-73.578313, -18.433735) "></path>
                        <ellipse id="Oval" stroke="none" fill="#FFFFFF" fill-rule="evenodd" opacity="0.900000036" cx="89.8755272" cy="18.9285714" rx="3.87552719" ry="3.92857143"></ellipse>
                        <rect id="Rectangle" stroke="none" fill="#FFFFFF" fill-rule="evenodd" x="99.9518979" y="15" width="46.5063262" height="7.85714286" rx="2.5"></rect>
                    </g>
                </g>
            </g>
        </g>
    </g>
</svg>