<?xml version="1.0" encoding="UTF-8"?>
<svg width="121px" height="121px" viewBox="0 0 121 121" version="1.1" xmlns="http://www.w3.org/2000/svg" xmlns:xlink="http://www.w3.org/1999/xlink">
    <title>编组</title>
    <defs>
        <circle id="path-1" cx="60.5" cy="60.5" r="60.5"></circle>
        <rect id="path-3" x="4" y="0" width="68.4844642" height="40.5833862" rx="4"></rect>
        <filter x="-18.3%" y="-25.9%" width="136.5%" height="161.6%" filterUnits="objectBoundingBox" id="filter-4">
            <feMorphology radius="1" operator="dilate" in="SourceAlpha" result="shadowSpreadOuter1"></feMorphology>
            <feOffset dx="0" dy="2" in="shadowSpreadOuter1" result="shadowOffsetOuter1"></feOffset>
            <feGaussianBlur stdDeviation="3.5" in="shadowOffsetOuter1" result="shadowBlurOuter1"></feGaussianBlur>
            <feComposite in="shadowBlurOuter1" in2="SourceAlpha" operator="out" result="shadowBlurOuter1"></feComposite>
            <feColorMatrix values="0 0 0 0 0.788235294   0 0 0 0 0.8   0 0 0 0 0.847058824  0 0 0 0.480031687 0" type="matrix" in="shadowBlurOuter1"></feColorMatrix>
        </filter>
        <rect id="path-5" x="140.947368" y="0" width="60.8750793" height="40.5833862" rx="4"></rect>
        <filter x="-20.5%" y="-25.9%" width="141.1%" height="161.6%" filterUnits="objectBoundingBox" id="filter-6">
            <feMorphology radius="1" operator="dilate" in="SourceAlpha" result="shadowSpreadOuter1"></feMorphology>
            <feOffset dx="0" dy="2" in="shadowSpreadOuter1" result="shadowOffsetOuter1"></feOffset>
            <feGaussianBlur stdDeviation="3.5" in="shadowOffsetOuter1" result="shadowBlurOuter1"></feGaussianBlur>
            <feComposite in="shadowBlurOuter1" in2="SourceAlpha" operator="out" result="shadowBlurOuter1"></feComposite>
            <feColorMatrix values="0 0 0 0 0.788235294   0 0 0 0 0.8   0 0 0 0 0.847058824  0 0 0 0.480031687 0" type="matrix" in="shadowBlurOuter1"></feColorMatrix>
        </filter>
        <filter x="-40.0%" y="-27.3%" width="180.0%" height="154.5%" filterUnits="objectBoundingBox" id="filter-7">
            <feOffset dx="0" dy="1" in="SourceAlpha" result="shadowOffsetOuter1"></feOffset>
            <feGaussianBlur stdDeviation="1.5" in="shadowOffsetOuter1" result="shadowBlurOuter1"></feGaussianBlur>
            <feColorMatrix values="0 0 0 0 0   0 0 0 0 0   0 0 0 0 0  0 0 0 0.2 0" type="matrix" in="shadowBlurOuter1" result="shadowMatrixOuter1"></feColorMatrix>
            <feMerge>
                <feMergeNode in="shadowMatrixOuter1"></feMergeNode>
                <feMergeNode in="SourceGraphic"></feMergeNode>
            </feMerge>
        </filter>
        <polygon id="path-8" points="1.44666667 0.512666667 1.44666667 1.846 1.3112 1.846 1.3112 0.512666667 1.44666667 0.512666667"></polygon>
        <polygon id="path-10" points="1.7876 1.33333333 0.454266667 1.33333333 0.454266667 0.4516 1.7876 0.4516"></polygon>
        <polygon id="path-12" points="1.44666667 0.1572 1.44666667 1.49053333 0.224666667 1.49053333 0.224666667 0.1572 1.44666667 0.1572"></polygon>
        <polygon id="path-14" points="1.44666667 0.7476 1.44666667 1.33333333 0.2244 1.33333333 0.2244 0.7476 1.44666667 0.7476"></polygon>
        <polygon id="path-16" points="9.38966667 28 0 28 0 0.669333333 9.38966667 0.669333333 18.7793333 0.669333333 18.7793333 28 9.38966667 28"></polygon>
    </defs>
    <g id="高级数据源" stroke="none" stroke-width="1" fill="none" fill-rule="evenodd" opacity="0.800000012">
        <g id="数据流编辑页" transform="translate(-714.000000, -343.000000)">
            <g id="编组" transform="translate(714.000000, 343.000000)">
                <mask id="mask-2" fill="white">
                    <use xlink:href="#path-1"></use>
                </mask>
                <use id="蒙版" fill-opacity="0.812151715" fill="#FFFFFF" xlink:href="#path-1"></use>
                <g mask="url(#mask-2)">
                    <g transform="translate(-44.000000, 42.000000)">
                        <g id="矩形" stroke="none" fill="none">
                            <use fill="black" fill-opacity="1" filter="url(#filter-4)" xlink:href="#path-3"></use>
                            <rect stroke="#FFFFFF" stroke-width="1" fill="#87A2FF" fill-rule="evenodd" x="3.5" y="-0.5" width="69.4844642" height="41.5833862" rx="4"></rect>
                        </g>
                        <rect id="Rectangle" stroke="none" fill="#FFFFFF" fill-rule="evenodd" x="0" y="16" width="52.848098" height="8.92857143" rx="2.5"></rect>
                        <g id="矩形备份-3" stroke="none" fill="none">
                            <use fill="black" fill-opacity="1" filter="url(#filter-6)" xlink:href="#path-5"></use>
                            <rect stroke="#FFFFFF" stroke-width="1" fill="#87A2FF" fill-rule="evenodd" x="140.447368" y="-0.5" width="61.8750793" height="41.5833862" rx="4"></rect>
                        </g>
                        <rect id="Rectangle" stroke="none" fill="#FFFFFF" fill-rule="evenodd" x="156" y="16" width="52.848098" height="8.92857143" rx="2.5"></rect>
                        <line x1="70.3157895" y1="20" x2="143.124921" y2="20.2916931" id="路径" stroke="#4A5D9B" stroke-width="2" fill="none" stroke-dasharray="4"></line>
                        <g id="手势" stroke="none" stroke-width="1" fill="none" fill-rule="evenodd" transform="translate(96.882689, 17.369237)">
                            <g id="CURSOR-TYPE" filter="url(#filter-7)">
                                <path d="M13.3688,15.454 C13.3701333,15.4513333 13.3728,15.4473333 13.3741333,15.4446667 L13.4034667,15.554 L13.3688,15.454 Z M15.3621333,22.75 C15.3621333,22.6113333 15.4061333,22.4766667 15.4848,22.3633333 L16.6154667,20.7713333 C17.0874667,20.106 17.3381333,19.3206667 17.3381333,18.5006667 L17.3381333,11.9993333 C17.3381333,9.23266667 17.0434667,8.77666667 16.0368,8.69133333 L16.0368,10.666 C16.0368,11.0353333 15.7394667,11.3326667 15.3701333,11.3326667 C15.0021333,11.3326667 14.7034667,11.0353333 14.7034667,10.666 L14.7034667,8.09933333 C14.6261333,7.86466667 14.3194667,7.22866667 13.2928,7.242 L13.2928,10.666 C13.2928,11.0353333 12.9941333,11.3326667 12.6261333,11.3326667 C12.2568,11.3326667 11.9594667,11.0353333 11.9594667,10.666 L11.9594667,6.79533333 C11.8341333,6.574 11.4648,6.05933333 10.7794667,5.99933333 L10.7794667,10.666 C10.7794667,11.0353333 10.4808,11.3326667 10.1128,11.3326667 C9.74346667,11.3326667 9.44613333,11.0353333 9.44613333,10.666 L9.44613333,6.10066667 C9.4448,6.08466667 9.4368,6.07133333 9.4368,6.05533333 L9.4368,3.33266667 C9.4368,2.58866667 8.9208,2.018 8.2368,2.00333333 C7.50746667,2.01933333 6.81813333,2.65266667 6.81813333,3.33266667 L6.81813333,12.8753333 C6.81813333,13.158 6.6408,13.4086667 6.37546667,13.5033333 C6.11413333,13.5993333 5.81413333,13.5153333 5.63546667,13.2993333 L3.59946667,10.8166667 C3.3648,10.582 3.0128,10.4286667 2.65013333,10.4286667 L2.6488,10.4286667 C2.28613333,10.4286667 1.93413333,10.582 1.6568,10.862 C1.21946667,11.306 1.23546667,12.05 1.69146667,12.5206667 L3.53146667,15.1553333 C4.3568,16.3406667 5.0208,17.6353333 5.50346667,19.0006667 C5.94213333,20.3393333 6.9688,22.298 7.79413333,22.298 C8.1608,22.298 8.45946667,22.5953333 8.4608,22.9633333 L8.46213333,23.9993333 L15.3621333,23.9993333 L15.3621333,23.1113333 L15.3621333,22.75 Z" id="Fill-1" fill="#FFFFFF"></path>
                                <g id="Group-5" transform="translate(17.333333, 10.666667)">
                                    <mask id="mask-9" fill="white">
                                        <use xlink:href="#path-8"></use>
                                    </mask>
                                    <g id="Clip-4"></g>
                                    <path d="M1.3112,0.512666667 C1.31786667,0.663333333 1.3232,0.815333333 1.32586667,0.978 C1.3232,0.818 1.3192,0.659333333 1.3112,0.512666667" id="Fill-3" fill="#FFFFFF" mask="url(#mask-9)"></path>
                                </g>
                                <g id="Group-8" transform="translate(5.333333, 26.666667)">
                                    <mask id="mask-11" fill="white">
                                        <use xlink:href="#path-10"></use>
                                    </mask>
                                    <g id="Clip-7"></g>
                                    <path d="M0.454266667,0.4516 C0.670266667,0.770266667 0.9756,1.02493333 1.33426667,1.1756 C0.9756,1.02493333 0.670266667,0.770266667 0.454266667,0.4516" id="Fill-6" fill="#FFFFFF" mask="url(#mask-11)"></path>
                                </g>
                                <g id="Group-11" transform="translate(17.333333, 24.000000)">
                                    <mask id="mask-13" fill="white">
                                        <use xlink:href="#path-12"></use>
                                    </mask>
                                    <g id="Clip-10"></g>
                                    <path d="M0.224666667,0.1572 C0.463333333,0.258533333 0.679333333,0.4052 0.860666667,0.5852 C0.679333333,0.4052 0.463333333,0.258533333 0.224666667,0.1572" id="Fill-9" fill="#FFFFFF" mask="url(#mask-13)"></path>
                                </g>
                                <path d="M6.66773333,24.1572 C6.30906667,24.3092 6.00373333,24.5625333 5.78773333,24.8812 C6.00373333,24.5625333 6.30906667,24.3092 6.66773333,24.1572" id="Fill-12" fill="#FFFFFF"></path>
                                <path d="M16.7793333,25.3333333 L16.0006667,25.3333333 L7.798,25.3333333 L7.446,25.3333333 C7.078,25.3333333 6.77933333,25.632 6.77933333,26 C6.77933333,26.368 7.078,26.6666667 7.446,26.6666667 L16.7793333,26.6666667 C17.1473333,26.6666667 17.446,26.368 17.446,26 C17.446,25.632 17.1473333,25.3333333 16.7793333,25.3333333" id="Fill-14" fill="#FFFFFF"></path>
                                <g id="Group-18" transform="translate(17.333333, 26.666667)">
                                    <mask id="mask-15" fill="white">
                                        <use xlink:href="#path-14"></use>
                                    </mask>
                                    <g id="Clip-17"></g>
                                    <path d="M0.8604,0.7476 C0.679066667,0.928933333 0.4644,1.0756 0.2244,1.1756 C0.4644,1.0756 0.679066667,0.928933333 0.8604,0.7476" id="Fill-16" fill="#FFFFFF" mask="url(#mask-15)"></path>
                                </g>
                                <g>
                                    <mask id="mask-17" fill="white">
                                        <use xlink:href="#path-16"></use>
                                    </mask>
                                    <g id="Clip-20"></g>
                                    <path d="M16.7793333,26.6666667 L7.446,26.6666667 C7.078,26.6666667 6.77933333,26.368 6.77933333,26 C6.77933333,25.632 7.078,25.3333333 7.446,25.3333333 L7.798,25.3333333 L16.0006667,25.3333333 L16.7793333,25.3333333 C17.1473333,25.3333333 17.446,25.632 17.446,26 C17.446,26.368 17.1473333,26.6666667 16.7793333,26.6666667 L16.7793333,26.6666667 Z M8.46333333,24 L8.46066667,22.9626667 C8.45933333,22.5946667 8.16066667,22.2973333 7.794,22.2973333 C6.97,22.2973333 5.942,20.3386667 5.50333333,19.0013333 C5.02066667,17.6346667 4.358,16.34 3.53133333,15.156 L1.69266667,12.5213333 C1.23533333,12.0506667 1.21933333,11.3053333 1.65666667,10.8626667 C1.934,10.5826667 2.286,10.428 2.64866667,10.428 L2.65,10.428 C3.01266667,10.428 3.36466667,10.5826667 3.59933333,10.8173333 L5.63666667,13.2986667 C5.814,13.516 6.114,13.6 6.37533333,13.5026667 C6.64066667,13.408 6.818,13.1573333 6.818,12.876 L6.818,3.33333333 C6.818,2.652 7.50733333,2.01866667 8.23666667,2.00266667 C8.92066667,2.01733333 9.43666667,2.58933333 9.43666667,3.33333333 L9.43666667,6.056 C9.43666667,6.072 9.44466667,6.08533333 9.446,6.1 L9.446,10.6666667 C9.446,11.0346667 9.74466667,11.3333333 10.1126667,11.3333333 C10.4806667,11.3333333 10.7793333,11.0346667 10.7793333,10.6666667 L10.7793333,5.99866667 C11.4646667,6.06 11.834,6.57333333 11.9593333,6.796 L11.9593333,10.6666667 C11.9593333,11.0346667 12.2566667,11.3333333 12.626,11.3333333 C12.994,11.3333333 13.2926667,11.0346667 13.2926667,10.6666667 L13.2926667,7.24133333 C14.3193333,7.22933333 14.626,7.86533333 14.7033333,8.09866667 L14.7033333,10.6666667 C14.7033333,11.0346667 15.002,11.3333333 15.37,11.3333333 C15.7393333,11.3333333 16.0366667,11.0346667 16.0366667,10.6666667 L16.0366667,8.692 C17.0433333,8.77733333 17.338,9.23333333 17.338,12 L17.338,18.5 C17.338,19.3213333 17.0873333,20.1066667 16.6153333,20.772 L15.4846667,22.364 C15.406,22.4773333 15.3633333,22.612 15.3633333,22.7493333 L15.3633333,23.1106667 L15.3633333,24 L8.46333333,24 Z M18.194,24.5853333 C18.0126667,24.4053333 17.7966667,24.2586667 17.558,24.1573333 C17.3193333,24.056 17.0553333,24 16.7793333,24 L16.6966667,24 L16.6966667,23.1106667 L16.6966667,22.9626667 L17.7033333,21.544 C18.3366667,20.6506667 18.6713333,19.5986667 18.6713333,18.5 L18.6713333,12 C18.6713333,11.868 18.662,11.7693333 18.6593333,11.6453333 C18.6566667,11.4826667 18.6513333,11.3306667 18.6446667,11.1786667 C18.5126667,8.05866667 17.6126667,7.43866667 15.8326667,7.348 C15.458,6.61066667 14.5806667,5.78 12.9806667,5.92 C12.67,5.46666667 12.042,4.856 11.05,4.71066667 C10.9673333,4.67333333 10.8766667,4.65066667 10.7793333,4.65066667 L10.77,4.65066667 L10.77,3.33333333 C10.77,1.868 9.67,0.698666667 8.23666667,0.669333333 C6.746,0.7 5.48466667,1.92 5.48466667,3.33333333 L5.48466667,11.0146667 L4.58866667,9.92533333 C4.062,9.38933333 3.37266667,9.09466667 2.65,9.09466667 L2.64866667,9.09466667 C1.92733333,9.09466667 1.238,9.38933333 0.708666667,9.92533333 C-0.235333333,10.8813333 -0.223333333,12.4613333 0.666,13.3653333 L2.438,15.916 C3.19533333,17.004 3.80333333,18.192 4.24066667,19.4306667 C4.44466667,20.0533333 5.45266667,22.8826667 7.12866667,23.508 L7.13,24.032 C6.96866667,24.0573333 6.81266667,24.096 6.66733333,24.1573333 C6.30866667,24.3093333 6.00333333,24.5626667 5.78733333,24.8813333 C5.57133333,25.2013333 5.446,25.5853333 5.446,26 C5.446,26.4146667 5.57133333,26.7986667 5.78733333,27.1186667 C6.00333333,27.4373333 6.30866667,27.6906667 6.66733333,27.8426667 C6.90733333,27.944 7.17,28 7.446,28 L16.7793333,28 C17.0553333,28 17.3193333,27.944 17.558,27.8426667 C17.7966667,27.7413333 18.0126667,27.5946667 18.194,27.4146667 C18.5553333,27.052 18.7793333,26.552 18.7793333,26 C18.7793333,25.448 18.5553333,24.948 18.194,24.5853333 L18.194,24.5853333 Z" id="Fill-19" fill="#4A5D9B" mask="url(#mask-17)"></path>
                                </g>
                            </g>
                        </g>
                        <circle id="椭圆形备份" stroke="#4A5D9B" stroke-width="2" fill="#FFFFFF" fill-rule="evenodd" stroke-linejoin="round" cx="69.9226379" cy="20.65948" r="6.9752695"></circle>
                        <path d="M143.4385,14.882817 L150.415085,25.0305773 C150.72797,25.4856831 150.612678,26.1082628 150.157572,26.4211481 C149.990874,26.5357532 149.793337,26.5971061 149.591043,26.5971061 L135.637873,26.5971061 C135.085588,26.5971061 134.637873,26.1493909 134.637873,25.5971061 C134.637873,25.3948126 134.699226,25.1972757 134.813831,25.0305773 L141.790416,14.882817 C142.103301,14.4277112 142.725881,14.3124186 143.180987,14.6253039 C143.281863,14.6946561 143.369147,14.7819409 143.4385,14.882817 Z" id="三角形" stroke="#4A5D9B" stroke-width="2" fill="#FFFFFF" fill-rule="evenodd" stroke-linejoin="round" transform="translate(142.614458, 20.140658) rotate(90.000000) translate(-142.614458, -20.140658) "></path>
                    </g>
                </g>
            </g>
        </g>
    </g>
</svg>