<?xml version="1.0" encoding="UTF-8"?>
<svg width="104px" height="87px" viewBox="0 0 104 87" version="1.1" xmlns="http://www.w3.org/2000/svg" xmlns:xlink="http://www.w3.org/1999/xlink">
    <title>编组 17</title>
    <defs>
        <linearGradient x1="50%" y1="25.7879803%" x2="51.0836026%" y2="95.2629213%" id="linearGradient-1">
            <stop stop-color="#DADDE5" offset="0%"></stop>
            <stop stop-color="#C5CAD7" offset="100%"></stop>
        </linearGradient>
        <linearGradient x1="126.175978%" y1="13.0210151%" x2="43.328009%" y2="13.0210151%" id="linearGradient-2">
            <stop stop-color="#A5ACBE" offset="0%"></stop>
            <stop stop-color="#C3C9D5" offset="100%"></stop>
        </linearGradient>
        <rect id="path-3" x="0" y="0" width="25" height="10" rx="2"></rect>
        <filter x="-18.0%" y="-45.0%" width="136.0%" height="190.0%" filterUnits="objectBoundingBox" id="filter-4">
            <feOffset dx="0" dy="0" in="SourceAlpha" result="shadowOffsetOuter1"></feOffset>
            <feGaussianBlur stdDeviation="1.5" in="shadowOffsetOuter1" result="shadowBlurOuter1"></feGaussianBlur>
            <feColorMatrix values="0 0 0 0 0.0666666667   0 0 0 0 0.266666667   0 0 0 0 0.639215686  0 0 0 0.16 0" type="matrix" in="shadowBlurOuter1"></feColorMatrix>
        </filter>
        <rect id="path-5" x="0" y="0" width="25" height="10" rx="2"></rect>
        <filter x="-18.0%" y="-45.0%" width="136.0%" height="190.0%" filterUnits="objectBoundingBox" id="filter-6">
            <feOffset dx="0" dy="0" in="SourceAlpha" result="shadowOffsetOuter1"></feOffset>
            <feGaussianBlur stdDeviation="1.5" in="shadowOffsetOuter1" result="shadowBlurOuter1"></feGaussianBlur>
            <feColorMatrix values="0 0 0 0 0.0666666667   0 0 0 0 0.266666667   0 0 0 0 0.639215686  0 0 0 0.16 0" type="matrix" in="shadowBlurOuter1"></feColorMatrix>
        </filter>
        <rect id="path-7" x="0" y="0" width="25" height="10" rx="2"></rect>
        <filter x="-18.0%" y="-45.0%" width="136.0%" height="190.0%" filterUnits="objectBoundingBox" id="filter-8">
            <feOffset dx="0" dy="0" in="SourceAlpha" result="shadowOffsetOuter1"></feOffset>
            <feGaussianBlur stdDeviation="1.5" in="shadowOffsetOuter1" result="shadowBlurOuter1"></feGaussianBlur>
            <feColorMatrix values="0 0 0 0 0.0666666667   0 0 0 0 0.266666667   0 0 0 0 0.639215686  0 0 0 0.16 0" type="matrix" in="shadowBlurOuter1"></feColorMatrix>
        </filter>
    </defs>
    <g id="高级数据源" stroke="none" stroke-width="1" fill="none" fill-rule="evenodd">
        <g id="数据流列表初始态" transform="translate(-92.000000, -351.000000)">
            <g id="编组-17" transform="translate(92.000000, 351.000000)">
                <rect id="Rectangle" x="0" y="0" width="104" height="87"></rect>
                <g id="底" transform="translate(3.454165, 5.000000)">
                    <rect id="Rectangle" fill="#D4D8E2" x="2.4953998" y="0" width="95" height="77" rx="4"></rect>
                    <rect id="Rectangle" fill="#EDEEF4" x="0" y="2" width="95" height="75" rx="4"></rect>
                    <path d="M4,2 L13,2 L13,2 L13,77 L4,77 C1.790861,77 2.705415e-16,75.209139 0,73 L0,6 C-2.705415e-16,3.790861 1.790861,2 4,2 Z" id="Rectangle" fill="url(#linearGradient-1)" opacity="0.400000006"></path>
                    <path d="M4,9.09494702e-13 L91,9.09494702e-13 C93.209139,9.086448e-13 95,1.790861 95,4 L95,11.9144166 L95,11.9144166 L0,11.9144166 L0,4 C-2.705415e-16,1.790861 1.790861,9.09900514e-13 4,9.09494702e-13 Z" id="Rectangle" fill="url(#linearGradient-2)"></path>
                    <g id="Group-3" transform="translate(4.704349, 4.696423)" fill="#EDEEF4">
                        <ellipse id="Oval" cx="1.39815594" cy="1.36265035" rx="1.39815594" ry="1.36265035"></ellipse>
                        <ellipse id="Oval-Copy" cx="6.9907797" cy="1.36265035" rx="1.39815594" ry="1.36265035"></ellipse>
                        <ellipse id="Oval-Copy-2" cx="12.5834035" cy="1.36265035" rx="1.39815594" ry="1.36265035"></ellipse>
                    </g>
                </g>
                <g id="编组-15" transform="translate(31.000000, 55.936613)">
                    <g id="编组-12">
                        <g id="Rectangle-Copy-10">
                            <use fill="black" fill-opacity="1" filter="url(#filter-4)" xlink:href="#path-3"></use>
                            <use fill="#FFFFFF" fill-rule="evenodd" xlink:href="#path-3"></use>
                        </g>
                        <circle id="Oval-Copy-12" fill="#EEEFF3" cx="4" cy="5.06338681" r="1"></circle>
                        <rect id="Rectangle-Copy-11" fill="#EEEFF3" x="7" y="4.06338681" width="14" height="2" rx="1"></rect>
                    </g>
                    <circle id="Oval-Copy-12" fill="#EEEFF3" cx="4" cy="5.06338681" r="1"></circle>
                    <rect id="Rectangle-Copy-11" fill="#EEEFF3" x="7" y="4.06338681" width="14" height="2" rx="1"></rect>
                </g>
                <g id="编组-13" transform="translate(21.000000, 30.936613)">
                    <g id="编组-11">
                        <g id="Rectangle-Copy-7">
                            <use fill="black" fill-opacity="1" filter="url(#filter-6)" xlink:href="#path-5"></use>
                            <use fill="#FFFFFF" fill-rule="evenodd" xlink:href="#path-5"></use>
                        </g>
                        <circle id="Oval-Copy-8" fill="#EEEFF3" cx="4" cy="5.06338681" r="1"></circle>
                        <rect id="Rectangle-Copy-4" fill="#EEEFF3" x="7" y="4.06338681" width="14" height="2" rx="1"></rect>
                    </g>
                    <circle id="Oval-Copy-8" fill="#EEEFF3" cx="4" cy="5.06338681" r="1"></circle>
                    <rect id="Rectangle-Copy-4" fill="#EEEFF3" x="7" y="4.06338681" width="14" height="2" rx="1"></rect>
                </g>
                <g id="编组-14" transform="translate(68.000000, 43.936613)">
                    <g id="编组-10">
                        <g id="Rectangle-Copy-9">
                            <use fill="black" fill-opacity="1" filter="url(#filter-8)" xlink:href="#path-7"></use>
                            <use fill="#FFFFFF" fill-rule="evenodd" xlink:href="#path-7"></use>
                        </g>
                        <circle id="Oval-Copy-11" fill="#EEEFF3" cx="5" cy="5.06338681" r="1"></circle>
                        <rect id="Rectangle-Copy-5" fill="#EEEFF3" x="8" y="4.06338681" width="14" height="2" rx="1"></rect>
                    </g>
                    <circle id="Oval-Copy-11" fill="#EEEFF3" cx="4" cy="5.06338681" r="1"></circle>
                    <rect id="Rectangle-Copy-5" fill="#EEEFF3" x="7" y="4.06338681" width="14" height="2" rx="1"></rect>
                </g>
                <path d="M46,36 C46,36 51.0909091,36 61.2727273,36 L61.2727273,49 L68,49" id="路径-6" stroke="#D4D8E2" stroke-width="1.8" stroke-linejoin="round"></path>
                <path d="M56,48 C56,48 57.77005,48 61.3101501,48 L61.3101501,61" id="路径-6备份" stroke="#D4D8E2" stroke-width="1.8" stroke-linejoin="round" transform="translate(58.655075, 54.500000) scale(1, -1) translate(-58.655075, -54.500000) "></path>
            </g>
        </g>
    </g>
</svg>