<?xml version="1.0" encoding="UTF-8"?>
<svg width="330px" height="177px" viewBox="0 0 330 177" version="1.1" xmlns="http://www.w3.org/2000/svg" xmlns:xlink="http://www.w3.org/1999/xlink">
    <title>编组 24</title>
    <defs>
        <path d="M0,0 L330,0 L330,169 C330,173.418278 326.418278,177 322,177 L8,177 C3.581722,177 5.41083001e-16,173.418278 0,169 L0,0 L0,0 Z" id="path-1"></path>
        <rect id="path-3" x="0" y="0" width="92.6315789" height="36.3559322" rx="6.33599983"></rect>
        <filter x="-17.8%" y="-45.4%" width="135.6%" height="190.8%" filterUnits="objectBoundingBox" id="filter-4">
            <feOffset dx="0" dy="0" in="SourceAlpha" result="shadowOffsetOuter1"></feOffset>
            <feGaussianBlur stdDeviation="5.5" in="shadowOffsetOuter1" result="shadowBlurOuter1"></feGaussianBlur>
            <feColorMatrix values="0 0 0 0 0.799638339   0 0 0 0 0.8388997   0 0 0 0 0.995945143  0 0 0 1 0" type="matrix" in="shadowBlurOuter1"></feColorMatrix>
        </filter>
        <rect id="path-5" x="0" y="4.66142653" width="92.8465166" height="36.1012853" rx="6.33599983"></rect>
        <filter x="-17.8%" y="-45.7%" width="135.5%" height="191.4%" filterUnits="objectBoundingBox" id="filter-6">
            <feOffset dx="0" dy="0" in="SourceAlpha" result="shadowOffsetOuter1"></feOffset>
            <feGaussianBlur stdDeviation="5.5" in="shadowOffsetOuter1" result="shadowBlurOuter1"></feGaussianBlur>
            <feComposite in="shadowBlurOuter1" in2="SourceAlpha" operator="out" result="shadowBlurOuter1"></feComposite>
            <feColorMatrix values="0 0 0 0 0.662147485   0 0 0 0 0.729717988   0 0 0 0 1  0 0 0 1 0" type="matrix" in="shadowBlurOuter1"></feColorMatrix>
        </filter>
        <ellipse id="path-7" cx="92.3189796" cy="23.4985043" rx="4.74783324" ry="4.70842015"></ellipse>
        <filter x="-47.4%" y="-47.8%" width="194.8%" height="195.6%" filterUnits="objectBoundingBox" id="filter-8">
            <feMorphology radius="0.5" operator="dilate" in="SourceAlpha" result="shadowSpreadOuter1"></feMorphology>
            <feOffset dx="0" dy="0" in="shadowSpreadOuter1" result="shadowOffsetOuter1"></feOffset>
            <feGaussianBlur stdDeviation="1" in="shadowOffsetOuter1" result="shadowBlurOuter1"></feGaussianBlur>
            <feComposite in="shadowBlurOuter1" in2="SourceAlpha" operator="out" result="shadowBlurOuter1"></feComposite>
            <feColorMatrix values="0 0 0 0 0.192156863   0 0 0 0 0.368627451   0 0 0 0 0.984313725  0 0 0 0.232611383 0" type="matrix" in="shadowBlurOuter1"></feColorMatrix>
        </filter>
        <rect id="path-9" x="5.26573031" y="0" width="92.6768534" height="36.3559322" rx="6.33599983"></rect>
        <filter x="-17.8%" y="-45.4%" width="135.6%" height="190.8%" filterUnits="objectBoundingBox" id="filter-10">
            <feOffset dx="0" dy="0" in="SourceAlpha" result="shadowOffsetOuter1"></feOffset>
            <feGaussianBlur stdDeviation="5.5" in="shadowOffsetOuter1" result="shadowBlurOuter1"></feGaussianBlur>
            <feColorMatrix values="0 0 0 0 0.799638339   0 0 0 0 0.8388997   0 0 0 0 0.995945143  0 0 0 1 0" type="matrix" in="shadowBlurOuter1"></feColorMatrix>
        </filter>
        <path d="M7.36778664,13.9424813 L10.7510542,13.9424813 C11.3342669,13.9424813 11.8070542,13.469694 11.8070542,12.8864813 C11.8070542,12.6163274 11.7035157,12.3564471 11.5177405,12.1603077 L1.82268633,1.9243728 C1.42163173,1.50094363 0.753255585,1.48280546 0.329826417,1.88386005 C0.119270714,2.08328971 4.54816383e-13,2.36053623 4.54945153e-13,2.65054638 L4.54945153e-13,16.5203654 C4.58125201e-13,17.1035781 0.472787304,17.5763654 1.056,17.5763654 C1.34601016,17.5763654 1.62325667,17.4570946 1.82268633,17.2465389 L4.13015536,14.8103377 L4.13015536,14.8103377 L7.51060704,23.2184805 C7.72816041,23.7595975 8.34318424,24.0218976 8.88430122,23.8043442 C8.89705551,23.7992164 8.90970847,23.7938401 8.92225284,23.7882182 L10.0324637,23.2906706 C10.5500371,23.058717 10.7919458,22.459337 10.5803758,21.9331024 L7.36778664,13.9424813 L7.36778664,13.9424813 Z" id="path-11"></path>
        <filter x="-84.1%" y="-39.3%" width="257.7%" height="183.6%" filterUnits="objectBoundingBox" id="filter-12">
            <feMorphology radius="2.112" operator="dilate" in="SourceAlpha" result="shadowSpreadOuter1"></feMorphology>
            <feOffset dx="0" dy="0" in="shadowSpreadOuter1" result="shadowOffsetOuter1"></feOffset>
            <feGaussianBlur stdDeviation="3" in="shadowOffsetOuter1" result="shadowBlurOuter1"></feGaussianBlur>
            <feComposite in="shadowBlurOuter1" in2="SourceAlpha" operator="out" result="shadowBlurOuter1"></feComposite>
            <feColorMatrix values="0 0 0 0 0.49150867   0 0 0 0 0.607074881   0 0 0 0 1  0 0 0 1 0" type="matrix" in="shadowBlurOuter1"></feColorMatrix>
        </filter>
    </defs>
    <g id="高级数据源" stroke="none" stroke-width="1" fill="none" fill-rule="evenodd">
        <g id="图片链接状态" transform="translate(-141.000000, -99.000000)">
            <g id="编组-24" transform="translate(141.000000, 99.000000)">
                <mask id="mask-2" fill="white">
                    <use xlink:href="#path-1"></use>
                </mask>
                <use id="蒙版" fill="#E9EEFF" xlink:href="#path-1"></use>
                <g id="编组-4" opacity="0.105711148" mask="url(#mask-2)">
                    <g transform="translate(250.114754, 91.281936)">
                        <path d="M4.8,0 L94.0032787,0 C96.6542455,-4.86974701e-16 98.8032787,2.1490332 98.8032787,4.8 L98.8032787,91.4067137 L98.8032787,91.4067137 L0,91.4067137 L0,4.8 C-3.24649801e-16,2.1490332 2.1490332,-2.17756056e-15 4.8,0 Z" id="矩形" fill="#7B99FF"></path>
                        <rect id="矩形" fill="#FFFFFF" x="21.6885246" y="21.1529327" width="80.7295082" height="8.81961077" rx="4.40980539"></rect>
                        <rect id="矩形备份-8" fill="#FFFFFF" x="21.6885246" y="49.8017066" width="80.7295082" height="8.81961077" rx="4.40980539"></rect>
                        <rect id="矩形备份-10" fill="#FFFFFF" x="21.6885246" y="78.2762828" width="80.7295082" height="8.81961077" rx="4.40980539"></rect>
                    </g>
                </g>
                <g id="编组-4备份-2" opacity="0.0530901243" mask="url(#mask-2)" fill="#7B99FF">
                    <g transform="translate(233.245902, -15.968608)" id="矩形">
                        <path d="M6,0 L92.8032787,0 C96.1169872,9.10895318e-15 98.8032787,2.6862915 98.8032787,6 L98.8032787,36.5626855 L98.8032787,36.5626855 L6,36.5626855 C2.6862915,36.5626855 1.29399067e-15,33.876394 0,30.5626855 L0,6 C4.82366169e-16,2.6862915 2.6862915,1.4968968e-15 6,0 Z"></path>
                    </g>
                </g>
                <g id="编组-4备份" opacity="0.100000001" mask="url(#mask-2)">
                    <g transform="translate(-17.377049, -28.625074)">
                        <path d="M18.0540984,0 L101.232787,0 C103.883754,-4.86974701e-16 106.032787,2.1490332 106.032787,4.8 L106.032787,86.531689 L106.032787,86.531689 L13.2540984,86.531689 L13.2540984,4.8 C13.2540984,2.1490332 15.4031316,-2.17756056e-15 18.0540984,0 Z" id="矩形" fill="#7B99FF"></path>
                        <rect id="矩形备份-8" fill="#FFFFFF" x="0" y="32.7349664" width="80.7295082" height="7.60085459" rx="3.8004273"></rect>
                        <rect id="矩形备份-9" fill="#FFFFFF" x="0" y="58.9632673" width="80.7295082" height="7.60085459" rx="3.8004273"></rect>
                    </g>
                </g>
                <g id="编组-2" mask="url(#mask-2)">
                    <g transform="translate(50.000000, 24.000000)">
                        <g id="编组-3" stroke="none" stroke-width="1" fill="none" fill-rule="evenodd">
                            <g id="编组">
                                <g id="矩形">
                                    <use fill="black" fill-opacity="1" filter="url(#filter-4)" xlink:href="#path-3"></use>
                                    <use fill="#FFFFFF" fill-rule="evenodd" xlink:href="#path-3"></use>
                                </g>
                                <text id="输入" font-family="PingFangSC-Regular, PingFang SC" font-size="12.672" font-weight="normal" line-spacing="21.12" fill="#294D60">
                                    <tspan x="34.6943505" y="20.6393658">输入</tspan>
                                </text>
                                <rect id="矩形" fill="#6FBF2C" x="8.42105263" y="7.40165825" width="20" height="20.516385" rx="3.168"></rect>
                                <g id="table-import-stroke" transform="translate(11.578947, 10.641087)" fill="#FFFFFF" fill-rule="nonzero">
                                    <rect id="矩形" opacity="0" x="0" y="0" width="13.6842105" height="14.0375266"></rect>
                                    <path d="M11.6515351,13.1806526 L5.11447368,13.1806526 C4.64212489,13.1806526 4.25921053,12.7878517 4.25921053,12.3033072 L4.25921053,10.1157926 C4.25921053,9.87352037 4.45066771,9.67711991 4.68684211,9.67711991 L4.97192982,9.67711991 C5.20810422,9.67711991 5.3995614,9.87352037 5.3995614,10.1157926 L5.3995614,12.0108587 L11.3664474,12.0108587 L11.3664474,2.04713929 L5.3995614,2.04713929 L5.3995614,3.94512988 C5.39960767,4.1856317 5.21203385,4.38194889 4.97763158,4.38672707 L4.69254386,4.38672707 C4.45636946,4.38672707 4.26491229,4.1903266 4.26491229,3.94805436 L4.26491229,1.75761531 C4.26491229,1.27307081 4.64782664,0.880269893 5.12017544,0.880269893 L11.6515351,0.880269893 C12.1238839,0.880269893 12.5067982,1.27307081 12.5067982,1.75761531 L12.5067982,12.3150051 C12.5005592,12.7949751 12.1194661,13.1806526 11.6515351,13.1806526 Z M8.26754386,7.60366025 L0.997807022,7.60366025 C0.763841492,7.60368159 0.573294978,7.41082152 0.570137378,7.1708365 L0.570137378,6.87838804 C0.568649978,6.76103471 0.613029555,6.64794808 0.693391968,6.5644116 C0.773754381,6.48087513 0.883397235,6.43386636 0.997807022,6.43386636 L8.26754386,6.43386636 L8.26754386,7.60366025 Z M6.41162281,9.74145856 L6.2120614,9.53382016 C6.04531166,9.36255207 6.04531166,9.08509748 6.2120614,8.9138294 L8.08223684,7.0187633 L6.21776316,5.14709309 C6.05101342,4.97582501 6.05101342,4.69837042 6.21776316,4.52710233 L6.41732456,4.31653943 C6.58428193,4.14548434 6.85475315,4.14548434 7.02171053,4.31653943 L9.40789474,6.69122102 C9.57309094,6.86314556 9.57309094,7.13928723 9.40789474,7.31121177 L7.0245614,9.73853408 C6.94444166,9.82378271 6.83412786,9.87218302 6.71869395,9.87273853 C6.60326003,9.87328454 6.49251212,9.82593898 6.41162281,9.74145856 L6.41162281,9.74145856 Z" id="形状"></path>
                                </g>
                            </g>
                            <ellipse id="椭圆形" stroke-opacity="0.514643316" stroke="#BBBECA" stroke-width="1.056" fill="#FFFFFF" cx="92.1052632" cy="17.2115078" rx="4.20884211" ry="4.21363183"></ellipse>
                        </g>
                        <g id="编组-7" stroke="none" stroke-width="1" fill="none" fill-rule="evenodd" transform="translate(25.311005, 89.237288)">
                            <g id="矩形备份-5">
                                <use fill="black" fill-opacity="1" filter="url(#filter-6)" xlink:href="#path-5"></use>
                                <rect stroke="#315EFB" stroke-width="1.056" stroke-linejoin="square" fill="#FFFFFF" fill-rule="evenodd" x="0.528" y="5.18942653" width="91.7905166" height="35.0452853" rx="6.33599983"></rect>
                            </g>
                            <text id="输入备份" font-family="PingFangSC-Regular, PingFang SC" font-size="12.672" font-weight="normal" line-spacing="21.12" fill="#294D60">
                                <tspan x="34.8054823" y="25.585131">输入</tspan>
                            </text>
                            <g id="table-import-stroke备份" transform="translate(11.605815, 16.870706)" fill="#FFFFFF" fill-rule="nonzero">
                                <rect id="矩形" opacity="0" x="0" y="0" width="13.7159627" height="13.6021027"></rect>
                                <path d="M11.6785707,12.7718076 L5.12634105,12.7718076 C4.65289624,12.7718076 4.26909338,12.3911908 4.26909338,11.9216762 L4.26909338,9.80201522 C4.26909338,9.56725792 4.46099481,9.37694952 4.69771722,9.37694952 L4.98346644,9.37694952 C5.22018884,9.37694952 5.41209027,9.56725792 5.41209027,9.80201522 L5.41209027,11.6382991 L11.3928215,11.6382991 L11.3928215,1.98363997 L5.41209027,1.98363997 L5.41209027,3.8227576 C5.41213665,4.05579941 5.22412759,4.24602711 4.98918143,4.25065708 L4.70343221,4.25065708 C4.4667098,4.25065708 4.27480837,4.06034868 4.27480837,3.82559137 L4.27480837,1.7030966 C4.27480837,1.23358198 4.65861123,0.852965183 5.13205604,0.852965183 L11.6785707,0.852965183 C12.1520155,0.852965183 12.5358184,1.23358198 12.5358184,1.7030966 L12.5358184,11.9330113 C12.5295648,12.3980933 12.1475875,12.7718076 11.6785707,12.7718076 Z M8.28672746,7.36780561 L1.00012228,7.36780561 C0.765613872,7.36782628 0.574625223,7.18094845 0.571460296,6.94840743 L0.571460296,6.6650303 C0.569969444,6.5513171 0.614451998,6.44173826 0.69500088,6.36079296 C0.775549761,6.27984767 0.885447025,6.23429704 1.00012228,6.23429704 L8.28672746,6.23429704 L8.28672746,7.36780561 Z M6.42650002,9.43929248 L6.22647555,9.23809472 C6.0593389,9.07213913 6.0593389,8.80329078 6.22647555,8.63733519 L8.10099046,6.80105133 L6.23219054,4.98743764 C6.06505389,4.82148205 6.06505389,4.5526337 6.23219054,4.38667811 L6.43221499,4.18264657 C6.59955977,4.01689736 6.87065858,4.01689736 7.03800335,4.18264657 L9.42972434,6.48366894 C9.59530386,6.65026062 9.59530386,6.91783678 9.42972434,7.08442846 L7.04086084,9.43645872 C6.96055519,9.51906305 6.84998543,9.56596205 6.73428367,9.56650033 C6.61858191,9.56702941 6.50757702,9.52115244 6.42650002,9.43929248 L6.42650002,9.43929248 Z" id="形状"></path>
                            </g>
                            <g id="椭圆形备份-2">
                                <use fill="black" fill-opacity="1" filter="url(#filter-8)" xlink:href="#path-7"></use>
                                <ellipse stroke="#315EFB" stroke-width="1.408" stroke-linejoin="square" fill="#FFFFFF" fill-rule="evenodd" cx="92.3189796" cy="23.4985043" rx="4.04383324" ry="4.00442015"></ellipse>
                            </g>
                            <path d="M97.0668128,24.0652585 C107.882705,24.0652585 116.650718,15.2972457 116.650718,4.48135365 L116.650718,0 L116.650718,0" id="路径-4" stroke="#315EFB" stroke-width="1.76" stroke-dasharray="2.11200008392334,2.11200008392334"></path>
                        </g>
                        <g id="编组-6" stroke="none" stroke-width="1" fill="none" fill-rule="evenodd" transform="translate(132.057416, 39.661017)">
                            <g id="矩形备份-6">
                                <use fill="black" fill-opacity="1" filter="url(#filter-10)" xlink:href="#path-9"></use>
                                <use fill="#FFFFFF" fill-rule="evenodd" xlink:href="#path-9"></use>
                            </g>
                            <text id="合并" font-family="PingFangSC-Regular, PingFang SC" font-size="12.672" font-weight="normal" line-spacing="21.12" fill="#294D60">
                                <tspan x="38.9303435" y="21.0571862">合并</tspan>
                            </text>
                            <rect id="矩形" fill="#E2E9FF" x="14.107844" y="8.18324917" width="21.0485438" height="21.101288" rx="3.52"></rect>
                            <g id="list-check-stroke" transform="translate(17.615935, 11.700130)" fill="#5573D0" fill-rule="nonzero">
                                <rect id="矩形" opacity="0" x="0" y="0" width="14.0323625" height="14.0675253"></rect>
                                <path d="M2.35919095,8.5430909 C2.35919095,8.5430909 2.36211436,8.5430909 2.35919095,8.5430909 C2.36211436,8.5430909 2.36211436,8.5430909 2.35919095,8.5430909 C2.4732039,8.5430909 2.58429344,8.49912989 2.67199571,8.41413858 L4.5488242,6.53260707 C4.72130532,6.35969373 4.72130532,6.08127397 4.5488242,5.91129137 L4.31202808,5.67390188 C4.22724922,5.58891057 4.11323627,5.54494957 4.00214673,5.54494957 C3.89105719,5.54494957 3.77704424,5.58891059 3.69226539,5.67390188 L2.36211436,7.00738605 L1.86221144,6.50623046 C1.77743258,6.42123916 1.66341963,6.37727814 1.55233011,6.37727814 C1.44124058,6.37727814 1.32722762,6.42123916 1.24244877,6.50623046 L1.00565265,6.74361995 C0.922811416,6.82566114 0.876186264,6.93753936 0.876186264,7.0542778 C0.876186264,7.17101625 0.922811416,7.28289447 1.00565265,7.36493566 L2.04930962,8.41120785 C2.13701188,8.49912989 2.24810142,8.5430909 2.35919095,8.5430909 L2.35919095,8.5430909 Z M12.7314456,10.7176959 L6.18885657,10.7176959 C5.94621363,10.7176959 5.75034524,10.9140551 5.75034524,11.157306 L5.75034524,11.4503795 C5.75034524,11.6936304 5.94621363,11.8899896 6.18885657,11.8899896 L12.7314456,11.8899896 C12.9740885,11.8899896 13.1699569,11.6936304 13.1699569,11.4503795 L13.1699569,11.157306 C13.1699569,10.9140551 12.9740885,10.7176959 12.7314456,10.7176959 Z M12.7314456,6.45640797 L6.18885657,6.45640797 C5.94621363,6.45640797 5.75034524,6.65276717 5.75034524,6.89601814 L5.75034524,7.18909159 C5.75034524,7.43234255 5.94621363,7.62870176 6.18885657,7.62870176 L12.7314456,7.62870176 C12.9740885,7.62870176 13.1699569,7.43234255 13.1699569,7.18909159 L13.1699569,6.89601814 C13.1699569,6.65569792 12.9740885,6.45640797 12.7314456,6.45640797 L12.7314456,6.45640797 Z M12.7314456,2.19805083 L6.18885657,2.19805083 C5.94621363,2.19805083 5.75034524,2.39441003 5.75034524,2.637661 L5.75034524,2.93073444 C5.75034524,3.1739854 5.94621363,3.3703446 6.18885657,3.3703446 L12.7314456,3.3703446 C12.9740885,3.3703446 13.1699569,3.1739854 13.1699569,2.93073444 L13.1699569,2.637661 C13.1699569,2.39441003 12.9740885,2.19805083 12.7314456,2.19805083 Z M2.77723842,0.879220333 C2.09831829,0.879162534 1.47094554,1.24223653 1.13146883,1.83166232 C0.791992113,2.42108811 0.791992113,3.14730732 1.13146883,3.73673311 C1.47094554,4.3261589 2.09831829,4.6892329 2.77723842,4.6891751 C3.82663559,4.68908576 4.67729282,3.8362245 4.67729282,2.78419772 C4.67729282,1.73217093 3.82663559,0.879309672 2.77723842,0.879220333 L2.77723842,0.879220333 Z M2.77723842,3.51688133 C2.37359989,3.51688133 2.04638621,3.1888477 2.04638621,2.78419772 C2.04638621,2.37954773 2.37359989,2.0515141 2.77723842,2.0515141 C3.18087696,2.0515141 3.50809064,2.37954773 3.50809064,2.78419772 C3.50809064,3.1888477 3.18087696,3.51688133 2.77723842,3.51688133 Z M2.77723842,9.39886536 C2.09831829,9.39880756 1.47094554,9.76188155 1.13146883,10.3513073 C0.791992113,10.9407331 0.791992113,11.6669523 1.13146883,12.2563781 C1.47094554,12.8458039 2.09831829,13.2088779 2.77723842,13.2088201 C3.82663559,13.2087308 4.67729282,12.3558695 4.67729282,11.3038427 C4.67729282,10.251816 3.82663559,9.3989547 2.77723842,9.39886536 L2.77723842,9.39886536 Z M2.77723842,12.0365264 C2.37359989,12.0365264 2.04638621,11.7084927 2.04638621,11.3038427 C2.04638621,10.8991928 2.37359989,10.5711591 2.77723842,10.5711591 C3.18087696,10.5711591 3.50809064,10.8991928 3.50809064,11.3038427 C3.50809064,11.7084927 3.18087696,12.0365264 2.77723842,12.0365264 L2.77723842,12.0365264 Z" id="形状"></path>
                            </g>
                            <rect id="矩形" fill="#FFE9ED" x="14.107844" y="8.18324917" width="21.0485438" height="21.101288" rx="3.52"></rect>
                            <g id="table-merge-stroke" transform="translate(17.615935, 11.700130)" fill="#D43955" fill-rule="nonzero">
                                <rect id="矩形" opacity="0" x="0" y="0" width="14.0323625" height="14.0675253"></rect>
                                <path d="M8.45157503,1.46536723 L2.31241642,1.46536723 C1.82805018,1.46536723 1.43539376,1.85900758 1.43539376,2.34458756 L1.43539376,8.49912989 C1.43539376,8.98470987 1.82805018,9.37835022 2.31241642,9.37835022 L3.6279504,9.37835022 C3.87013352,9.37835022 4.06646173,9.18153004 4.06646173,8.93874005 L4.06646173,8.6456666 C4.06646173,8.40287661 3.87013352,8.20605643 3.6279504,8.20605643 L2.6047573,8.20605643 L2.6047573,2.637661 L8.15923413,2.637661 L8.15923413,8.20605643 L6.84370014,8.20605643 C6.60151702,8.20605643 6.40518881,8.40287661 6.40518881,8.6456666 L6.40518881,8.93874005 C6.40518881,9.18153004 6.60151702,9.37835022 6.84370014,9.37835022 L8.45157503,9.37835022 C8.93594127,9.37835022 9.32859769,8.98470987 9.32859769,8.49912989 L9.32859769,2.34458756 C9.32859769,1.85900758 8.93594127,1.46536723 8.45157503,1.46536723 Z M11.6673248,4.6891751 L10.3517908,4.6891751 C10.1096077,4.6891751 9.91327945,4.88599528 9.91327945,5.12878527 L9.91327945,5.42185872 C9.91327945,5.66464871 10.1096077,5.86146889 10.3517908,5.86146889 L11.3749839,5.86146889 L11.3749839,11.4298643 L5.82050705,11.4298643 L5.82050705,5.86146889 L7.13604104,5.86146889 C7.37822416,5.86146889 7.57455237,5.66464871 7.57455237,5.42185872 L7.57455237,5.12878527 C7.57455237,4.88599528 7.37822416,4.6891751 7.13604104,4.6891751 L5.52816615,4.6891751 C5.04379992,4.6891751 4.6511435,5.08281545 4.6511435,5.56839544 L4.6511435,11.7229378 C4.6511435,12.2085177 5.04379992,12.6021581 5.52816615,12.6021581 L11.6673248,12.6021581 C12.151691,12.6021581 12.5443474,12.2085177 12.5443474,11.7229378 L12.5443474,5.56839544 C12.5443474,5.08281545 12.151691,4.6891751 11.6673248,4.6891751 Z" id="形状"></path>
                            </g>
                            <ellipse id="椭圆形备份-3" stroke-opacity="0.514643316" stroke="#BBBECA" stroke-width="1.056" fill="#FFFFFF" cx="4.73915728" cy="18.0907281" rx="4.21115728" ry="4.21363183"></ellipse>
                        </g>
                        <rect id="矩形备份-7" stroke="none" fill="#6FBF2C" fill-rule="evenodd" x="34.1148325" y="103.559322" width="19.8086124" height="19.8305085" rx="3.168"></rect>
                        <g id="table-import-stroke" stroke="none" stroke-width="1" fill="none" fill-rule="evenodd" transform="translate(37.416268, 106.864407)">
                            <rect id="矩形" fill="#FFFFFF" fill-rule="nonzero" opacity="0" x="0" y="0" width="13.2057416" height="13.220339"></rect>
                            <path d="M11.2441388,12.4133475 L4.93564593,12.4133475 C4.47981283,12.4133475 4.11028708,12.0434132 4.11028708,11.5870763 L4.11028708,9.52690678 C4.11028708,9.29873829 4.29504995,9.11377119 4.52296651,9.11377119 L4.79808612,9.11377119 C5.02600267,9.11377119 5.21076555,9.29873829 5.21076555,9.52690678 L5.21076555,11.3116525 L10.9690191,11.3116525 L10.9690191,1.9279661 L5.21076555,1.9279661 L5.21076555,3.71546611 C5.2108102,3.94196724 5.0297949,4.12685591 4.80358852,4.13135593 L4.5284689,4.13135593 C4.30055235,4.13135593 4.11578948,3.94638883 4.11578948,3.71822034 L4.11578948,1.65529661 C4.11578948,1.19895963 4.48531522,0.829025419 4.94114833,0.829025419 L11.2441388,0.829025419 C11.6999719,0.829025419 12.0694976,1.19895963 12.0694976,1.65529661 L12.0694976,11.5980932 C12.0634767,12.050122 11.6957086,12.4133475 11.2441388,12.4133475 Z M7.9784689,7.16101695 L0.962918665,7.16101695 C0.737133748,7.16103705 0.553249699,6.97940423 0.550202505,6.75338983 L0.550202505,6.4779661 C0.548767111,6.36744444 0.591594955,6.26094109 0.669147493,6.18226765 C0.746700032,6.10359421 0.85250922,6.05932203 0.962918665,6.05932203 L7.9784689,6.05932203 L7.9784689,7.16101695 Z M6.1874402,9.1743644 L5.99485646,8.97881356 C5.83393713,8.81751576 5.83393713,8.55621306 5.99485646,8.39491525 L7.79964115,6.61016949 L6.00035885,4.84745763 C5.83943953,4.68615983 5.83943953,4.42485712 6.00035885,4.26355932 L6.19294258,4.06525424 C6.35406228,3.90415703 6.61507647,3.90415703 6.77619617,4.06525424 L9.07894737,6.30169492 C9.23836748,6.46361096 9.23836748,6.72367718 9.07894737,6.88559322 L6.77894736,9.17161017 C6.70162901,9.25189609 6.59517234,9.2974788 6.48377458,9.29800197 C6.37237682,9.2985162 6.26550121,9.25392683 6.1874402,9.1743644 L6.1874402,9.1743644 Z" id="形状" fill="#FFFFFF" fill-rule="nonzero"></path>
                        </g>
                        <g id="icon-/-hover-states-/-arrow-cursor" stroke="none" stroke-width="1" fill="none" fill-rule="evenodd" transform="translate(143.062201, 95.847458) rotate(-25.000000) translate(-143.062201, -95.847458) translate(136.459330, 83.728814)">
                            <g id="Arrow">
                                <use fill="black" fill-opacity="1" filter="url(#filter-12)" xlink:href="#path-11"></use>
                                <path stroke="#FFFFFF" stroke-width="2.112" d="M1.11329368,0.539323649 C1.65360269,0.553986379 2.18831806,0.77477005 2.58937266,1.19819922 L2.58937266,1.19819922 L12.2844268,11.4341341 C12.6559772,11.826413 12.8630542,12.3461735 12.8630542,12.8864813 C12.8630542,13.469694 12.6266605,13.997694 12.2444637,14.3798908 C11.8622669,14.7620876 11.3342669,14.9984813 10.7510542,14.9984813 L10.7510542,14.9984813 L8.93049674,14.9984813 L11.5601548,21.5391872 C11.7717248,22.0654217 11.7565554,22.628229 11.5591002,23.1174661 C11.361645,23.6067031 10.9819039,24.0223699 10.4643306,24.2543235 L10.4643306,24.2543235 L9.33863862,24.7588091 C8.77182022,24.9940299 8.18724196,24.9756165 7.69145461,24.7755176 C7.17606208,24.5675061 6.75160608,24.1615332 6.53082809,23.6123957 L6.53082809,23.6123957 L3.76457705,16.7319443 L2.58937266,17.9727125 C2.19051335,18.3938239 1.63602031,18.6323654 1.056,18.6323654 C0.472787304,18.6323654 -0.0552126958,18.3959717 -0.437409522,18.0137749 C-0.819606348,17.6315781 -1.056,17.1035781 -1.056,16.5203654 L-1.056,16.5203654 L-1.056,2.65054638 C-1.056,2.07052607 -0.817458573,1.51603303 -0.396347166,1.11717372 C0.0270820019,0.716119129 0.57298466,0.524660919 1.11329368,0.539323649 Z" fill="#315EFB" fill-rule="evenodd"></path>
                            </g>
                        </g>
                        <path d="M96.8421053,17.6705413 L122.3285,17.6345794 C125.244561,17.6304647 127.61183,19.9910633 127.615945,22.9071239 C127.615948,22.9096073 127.61595,22.9120907 127.61595,22.9145741 L127.61595,51.7449747 C127.61595,54.1979286 129.604462,56.1864407 132.057416,56.1864407 L132.057416,56.1864407 L132.057416,56.1864407" id="路径-5" stroke-opacity="0.746949096" stroke="#D1D3E4" stroke-width="1.056" fill="none"></path>
                    </g>
                </g>
            </g>
        </g>
    </g>
</svg>