<?xml version="1.0" encoding="UTF-8"?>
<svg width="24px" height="24px" viewBox="0 0 24 24" version="1.1" xmlns="http://www.w3.org/2000/svg" xmlns:xlink="http://www.w3.org/1999/xlink">
    <title>编组 8</title>
    <g id="高级数据源" stroke="none" stroke-width="1" fill="none" fill-rule="evenodd">
        <g id="数据流编辑页" transform="translate(-24.000000, -157.000000)">
            <g id="编组" transform="translate(0.000000, 53.000000)">
                <g id="1-墨斗通用/Button按钮/3大号带左侧图标/2级线框备份" transform="translate(16.000000, 98.000000)">
                    <g id="编组-8" transform="translate(8.000000, 6.000000)">
                        <rect id="矩形" fill="#FFBB17" x="0" y="0" width="24" height="24" rx="3"></rect>
                        <g id="table-export-stroke" transform="translate(4.000000, 4.000000)" fill="#FFFFFF" fill-rule="nonzero">
                            <rect id="矩形" opacity="0" x="0" y="0" width="16" height="16"></rect>
                            <path d="M9.75666667,15 L2.77666667,15 C2.22438192,15 1.77666667,14.5522847 1.77666667,14 L1.77666667,1.96 C1.77666667,1.40771525 2.22438192,0.96 2.77666667,0.96 L9.75666667,0.96 C10.3089514,0.96 10.7566667,1.40771525 10.7566667,1.96 L10.7566667,4.45333333 C10.7566667,4.7294757 10.532809,4.95333333 10.2566667,4.95333333 L9.92333333,4.95333333 C9.64719095,4.95333333 9.42333333,4.7294757 9.42333333,4.45333333 L9.42333333,2.29333333 L3.11,2.29333333 L3.11,13.6666667 L9.42,13.6666667 L9.42,11.4966667 C9.42179098,11.224406 9.64109093,11.0036243 9.91333333,11 L10.2466667,11 C10.5233534,10.9999939 10.7481676,11.2233193 10.75,11.5 L10.75,13.9966667 C10.7518489,14.5476579 10.3076487,14.9963298 9.75666667,15 Z M13.8566667,8.64333333 L5.36333333,8.64333333 C5.08719095,8.64333333 4.86333333,8.4194757 4.86333333,8.14333333 L4.86333333,7.81 C4.86333333,7.53385763 5.08719095,7.31 5.36333333,7.31 L13.8566667,7.31 L13.8566667,8.64333333 Z M11.6933333,11.0766667 L11.46,10.84 C11.2646469,10.6436462 11.2646469,10.3263538 11.46,10.13 L13.6466667,7.96 L11.4666667,5.82666667 C11.2716977,5.63145497 11.2716977,5.3152117 11.4666667,5.12 L11.7,4.88 C11.8952117,4.68503108 12.211455,4.68503108 12.4066667,4.88 L15.19,7.60666667 C15.2854922,7.7001014 15.3393156,7.82806723 15.3393156,7.96166667 C15.3393156,8.09526612 15.2854922,8.22323195 15.19,8.31666667 L12.4033333,11.0833333 C12.3085641,11.1771136 12.1802651,11.2291603 12.0469445,11.2279305 C11.9136239,11.2266566 11.7863249,11.17221 11.6933333,11.0766667 Z" id="形状"></path>
                        </g>
                    </g>
                </g>
            </g>
        </g>
    </g>
</svg>