<?xml version="1.0" encoding="UTF-8"?>
<svg width="24px" height="24px" viewBox="0 0 24 24" version="1.1" xmlns="http://www.w3.org/2000/svg" xmlns:xlink="http://www.w3.org/1999/xlink">
    <title>编组 18</title>
    <g id="高级数据源" stroke="none" stroke-width="1" fill="none" fill-rule="evenodd">
        <g id="数据流编辑页" transform="translate(-24.000000, -535.000000)">
            <g id="编组" transform="translate(0.000000, 53.000000)">
                <g id="1-墨斗通用/Button按钮/3大号带左侧图标/2级线框备份-11" transform="translate(16.000000, 476.000000)">
                    <g id="编组-18" transform="translate(8.000000, 6.000000)">
                        <rect id="矩形" fill="#E0FBF8" x="0" y="0" width="24" height="24" rx="3"></rect>
                        <g id="table-sub-stroke" transform="translate(4.000000, 4.000000)" fill="#548983" fill-rule="nonzero">
                            <rect id="矩形" opacity="0" x="0" y="0" width="16" height="16"></rect>
                            <path d="M13.6666667,1.33333333 L2.33333333,1.33333333 C1.78104858,1.33333333 1.33333333,1.78104858 1.33333333,2.33333333 L1.33333333,13.6666667 C1.33333333,14.2189514 1.78104858,14.6666667 2.33333333,14.6666667 L13.6666667,14.6666667 C14.2189514,14.6666667 14.6666667,14.2189514 14.6666667,13.6666667 L14.6666667,2.33333333 C14.6666667,1.78104858 14.2189514,1.33333333 13.6666667,1.33333333 L13.6666667,1.33333333 Z M13.3333333,2.66666667 L13.3333333,5.33333333 L2.66666667,5.33333333 L2.66666667,2.66666667 L13.3333333,2.66666667 Z M6.66666667,9.33333333 L6.66666667,6.68333333 L9.33333333,6.68333333 L9.33333333,9.35 L6.66666667,9.33333333 Z M9.33333333,10.6666667 L9.33333333,13.3333333 L6.66666667,13.3333333 L6.66666667,10.6666667 L9.33333333,10.6666667 Z M5.33333333,9.33333333 L2.66666667,9.33333333 L2.66666667,6.68333333 L5.33333333,6.68333333 L5.33333333,9.33333333 Z M10.6666667,6.68333333 L13.3333333,6.68333333 L13.3333333,9.35 L10.6666667,9.35 L10.6666667,6.68333333 Z M2.66666667,10.6666667 L5.33333333,10.6666667 L5.33333333,13.3333333 L2.66666667,13.3333333 L2.66666667,10.6666667 Z M10.6666667,13.3333333 L10.6666667,10.6666667 L13.3333333,10.6666667 L13.3333333,13.3333333 L10.6666667,13.3333333 Z" id="形状"></path>
                        </g>
                    </g>
                </g>
            </g>
        </g>
    </g>
</svg>