<?xml version="1.0" encoding="UTF-8"?>
<svg width="24px" height="24px" viewBox="0 0 24 24" version="1.1" xmlns="http://www.w3.org/2000/svg" xmlns:xlink="http://www.w3.org/1999/xlink">
    <title>编组 16</title>
    <g id="高级数据源" stroke="none" stroke-width="1" fill="none" fill-rule="evenodd">
        <g id="数据流编辑页" transform="translate(-24.000000, -393.000000)">
            <g id="编组" transform="translate(0.000000, 53.000000)">
                <g id="1-墨斗通用/Button按钮/3大号带左侧图标/2级线框备份-9" transform="translate(16.000000, 334.000000)">
                    <g id="编组-16" transform="translate(8.000000, 6.000000)">
                        <rect id="矩形" fill="#E2E9FF" x="0" y="0" width="24" height="24" rx="3"></rect>
                        <g id="list-check-stroke" transform="translate(4.000000, 4.000000)" fill="#5573D0" fill-rule="nonzero">
                            <rect id="矩形" opacity="0" x="0" y="0" width="16" height="16"></rect>
                            <path d="M2.69,9.71666667 C2.69,9.71666667 2.69333333,9.71666667 2.69,9.71666667 C2.69333333,9.71666667 2.69333333,9.71666667 2.69,9.71666667 C2.82,9.71666667 2.94666667,9.66666667 3.04666667,9.57 L5.18666667,7.43 C5.38333334,7.23333333 5.38333334,6.91666667 5.18666667,6.72333333 L4.91666667,6.45333333 C4.82,6.35666666 4.69,6.30666667 4.56333333,6.30666667 C4.43666666,6.30666667 4.30666666,6.35666667 4.21,6.45333333 L2.69333333,7.97 L2.12333333,7.4 C2.02666666,7.30333333 1.89666666,7.25333333 1.77,7.25333333 C1.64333334,7.25333333 1.51333333,7.30333333 1.41666667,7.4 L1.14666667,7.67 C1.05220932,7.76331129 0.999046325,7.89055838 0.999046325,8.02333334 C0.999046325,8.15610829 1.05220932,8.28335538 1.14666667,8.37666667 L2.33666667,9.56666667 C2.43666667,9.66666667 2.56333334,9.71666667 2.69,9.71666667 L2.69,9.71666667 Z M14.5166667,12.19 L7.05666667,12.19 C6.78,12.19 6.55666667,12.4133333 6.55666667,12.69 L6.55666667,13.0233333 C6.55666667,13.3 6.78,13.5233333 7.05666667,13.5233333 L14.5166667,13.5233333 C14.7933333,13.5233333 15.0166667,13.3 15.0166667,13.0233333 L15.0166667,12.69 C15.0166667,12.4133333 14.7933333,12.19 14.5166667,12.19 Z M14.5166667,7.34333333 L7.05666667,7.34333333 C6.78,7.34333333 6.55666667,7.56666666 6.55666667,7.84333333 L6.55666667,8.17666667 C6.55666667,8.45333334 6.78,8.67666667 7.05666667,8.67666667 L14.5166667,8.67666667 C14.7933333,8.67666667 15.0166667,8.45333334 15.0166667,8.17666667 L15.0166667,7.84333333 C15.0166667,7.57 14.7933333,7.34333333 14.5166667,7.34333333 L14.5166667,7.34333333 Z M14.5166667,2.5 L7.05666667,2.5 C6.78,2.5 6.55666667,2.72333333 6.55666667,3 L6.55666667,3.33333333 C6.55666667,3.61 6.78,3.83333333 7.05666667,3.83333333 L14.5166667,3.83333333 C14.7933333,3.83333333 15.0166667,3.61 15.0166667,3.33333333 L15.0166667,3 C15.0166667,2.72333333 14.7933333,2.5 14.5166667,2.5 Z M3.16666667,1 C2.3925474,0.999934261 1.67720358,1.41288422 1.29012496,2.08328021 C0.903046352,2.75367621 0.903046352,3.57965712 1.29012496,4.25005311 C1.67720358,4.92044911 2.3925474,5.33339907 3.16666667,5.33333333 C4.36321177,5.33323172 5.33314935,4.36321177 5.33314935,3.16666666 C5.33314935,1.97012156 4.36321177,1.00010161 3.16666667,1 L3.16666667,1 Z M3.16666667,4 C2.70642938,4 2.33333334,3.62690396 2.33333334,3.16666666 C2.33333334,2.70642937 2.70642938,2.33333333 3.16666667,2.33333333 C3.62690396,2.33333333 4.00000001,2.70642937 4.00000001,3.16666666 C4.00000001,3.62690396 3.62690396,4 3.16666667,4 Z M3.16666667,10.69 C2.3925474,10.6899343 1.67720358,11.1028842 1.29012496,11.7732802 C0.903046352,12.4436762 0.903046352,13.2696571 1.29012496,13.9400531 C1.67720358,14.6104491 2.3925474,15.0233991 3.16666667,15.0233333 C4.36321177,15.0232317 5.33314935,14.0532118 5.33314935,12.8566667 C5.33314935,11.6601216 4.36321177,10.6901016 3.16666667,10.69 L3.16666667,10.69 Z M3.16666667,13.69 C2.70642938,13.69 2.33333334,13.316904 2.33333334,12.8566667 C2.33333334,12.3964294 2.70642938,12.0233333 3.16666667,12.0233333 C3.62690396,12.0233333 4.00000001,12.3964294 4.00000001,12.8566667 C4.00000001,13.316904 3.62690396,13.69 3.16666667,13.69 L3.16666667,13.69 Z" id="形状"></path>
                        </g>
                    </g>
                </g>
            </g>
        </g>
    </g>
</svg>