<?xml version="1.0" encoding="UTF-8"?>
<svg width="24px" height="24px" viewBox="0 0 24 24" version="1.1" xmlns="http://www.w3.org/2000/svg" xmlns:xlink="http://www.w3.org/1999/xlink">
    <title>编组 15</title>
    <g id="高级数据源" stroke="none" stroke-width="1" fill="none" fill-rule="evenodd">
        <g id="数据流编辑页" transform="translate(-24.000000, -299.000000)">
            <g id="编组" transform="translate(0.000000, 53.000000)">
                <g id="1-墨斗通用/Button按钮/3大号带左侧图标/2级线框备份-7" transform="translate(16.000000, 240.000000)">
                    <g id="编组-15" transform="translate(8.000000, 6.000000)">
                        <rect id="矩形" fill="#E0F5FF" x="0" y="0" width="24" height="24" rx="3"></rect>
                        <g id="form-link-stroke" transform="translate(4.000000, 4.000000)" fill-rule="nonzero">
                            <rect id="矩形" fill="#000000" opacity="0" x="0" y="0" width="16" height="16"></rect>
                            <path d="M14.2633333,8.61 C13.3053136,7.75334994 11.8421262,7.80481884 10.9466667,8.72666667 L10.6666667,9 C10.5722093,9.09331129 10.5190463,9.22055838 10.5190463,9.35333334 C10.5190463,9.48610829 10.5722093,9.61335538 10.6666667,9.70666667 L10.9,9.94333333 C11.0959599,10.1364858 11.4107067,10.1364858 11.6066667,9.94333333 L11.94,9.61 C12.2769349,9.2581951 12.8151554,9.19266047 13.2266667,9.45333333 C13.4780096,9.61869397 13.6415445,9.88842944 13.6719294,10.1877523 C13.7023142,10.4870752 13.5963194,10.7841711 13.3833333,10.9966667 L13.03,11.35 C12.9355426,11.4433113 12.8823797,11.5705584 12.8823797,11.7033333 C12.8823797,11.8361083 12.9355426,11.9633554 13.03,12.0566667 L13.2633333,12.2933333 C13.4604285,12.4868818 13.7762381,12.4868818 13.9733333,12.2933333 L14.3333333,11.96 C14.7774202,11.5111393 15.0206356,10.9014633 15.0074446,10.2701827 C14.9942537,9.63890223 14.7257827,9.03991816 14.2633333,8.61 L14.2633333,8.61 Z M12.0766667,13.02 C11.9833554,12.9255426 11.8561083,12.8723797 11.7233333,12.8723797 C11.5905584,12.8723797 11.4633113,12.9255426 11.37,13.02 L11.0366667,13.3533333 C10.6997318,13.7051382 10.1615112,13.7706729 9.75,13.51 C9.49982174,13.344542 9.33712408,13.0755242 9.30676713,12.7771218 C9.27641018,12.4787195 9.38160015,12.182449 9.59333333,11.97 L9.94666667,11.6166667 C10.041323,11.5227834 10.0945658,11.3949854 10.0945658,11.2616667 C10.0945658,11.1283479 10.041323,11.00055 9.94666667,10.9066667 L9.71333333,10.6733333 C9.62068741,10.5759176 9.49250851,10.5202197 9.35807822,10.5189416 C9.22364793,10.517707 9.09445042,10.5709996 9,10.6666667 L8.71333333,10.95 C7.79148549,11.8454595 7.7400166,13.3086469 8.59666667,14.2666667 C9.0283322,14.7216877 9.62500659,14.9837677 10.2521258,14.9938016 C10.8792451,15.0038355 11.4839985,14.7609783 11.93,14.32 L12.2866667,13.9666667 C12.4802151,13.7695715 12.4802151,13.4537619 12.2866667,13.2566667 L12.0766667,13.02 Z M10.4273803,11.604501 L11.6058916,10.4259897 C11.8415938,10.1902875 12.0772961,10.1902875 12.3129983,10.4259897 L12.5487006,10.661692 C12.7844029,10.8973943 12.7844029,11.1330965 12.5487006,11.3687988 L11.3701893,12.5473101 C11.1344871,12.7830124 10.8987848,12.7830124 10.6630825,12.5473101 L10.4273803,12.3116078 C10.191678,12.0759056 10.191678,11.8402033 10.4273803,11.604501 Z M6.55333333,13.6666667 L3,13.6666667 L3,5.66666667 L12.6666667,5.66666667 L12.6666667,6.83333333 C12.6666667,7.1094757 12.8905243,7.33333333 13.1666667,7.33333333 L13.5,7.33333333 C13.7761424,7.33333333 14,7.1094757 14,6.83333333 L14,2 C14,1.44771525 13.5522847,1 13,1 L2.66666667,1 C2.11438192,1 1.66666667,1.44771525 1.66666667,2 L1.66666667,14 C1.66666667,14.5522847 2.11438192,15 2.66666667,15 L6.55333333,15 C6.8294757,15 7.05333333,14.7761424 7.05333333,14.5 L7.05333333,14.1666667 C7.05333333,13.8905243 6.8294757,13.6666667 6.55333333,13.6666667 Z M12.6666667,2.33333333 L12.6666667,4.33333333 L3,4.33333333 L3,2.33333333 L12.6666667,2.33333333 Z" id="形状" fill="#3C93BC"></path>
                        </g>
                    </g>
                </g>
            </g>
        </g>
    </g>
</svg>