<?xml version="1.0" encoding="UTF-8"?>
<svg width="24px" height="24px" viewBox="0 0 24 24" version="1.1" xmlns="http://www.w3.org/2000/svg" xmlns:xlink="http://www.w3.org/1999/xlink">
    <title>编组 17</title>
    <g id="高级数据源" stroke="none" stroke-width="1" fill="none" fill-rule="evenodd">
        <g id="数据流编辑页" transform="translate(-24.000000, -487.000000)">
            <g id="编组" transform="translate(0.000000, 53.000000)">
                <g id="1-墨斗通用/Button按钮/3大号带左侧图标/2级线框备份-10" transform="translate(16.000000, 428.000000)">
                    <g id="编组-17" transform="translate(8.000000, 6.000000)">
                        <rect id="矩形" fill="#EFE5FF" x="0" y="0" width="24" height="24" rx="3"></rect>
                        <g id="tool-filter-stroke" transform="translate(4.000000, 4.000000)" fill="#8E65D0" fill-rule="nonzero">
                            <rect id="矩形" opacity="0" x="0" y="0" width="16" height="16"></rect>
                            <path d="M13.49,1.63 L2.51,1.63 C2.13,1.63 1.82333333,1.94 1.82333333,2.31666667 L1.82333333,4.37333333 C1.82333333,4.6 1.93,4.8 2.09666667,4.92666667 L5.94,8.64333333 L5.94,12.79 C5.94,13.0866667 6.13,13.35 6.41333333,13.4433333 L9.15666667,14.34 C9.23,14.3633333 9.3,14.3733333 9.37,14.3733333 C9.73333333,14.3733333 10.0566667,14.0766667 10.0566667,13.6866667 L10.0566667,8.65 L13.9233333,4.90666667 L13.9633333,4.87 C14.0966667,4.73666667 14.17336,4.55666667 14.17336,4.37666667 L14.17336,2.31666667 C14.1766667,1.93666667 13.8666667,1.63 13.49,1.63 Z M12.8033333,4.08 L9.76333333,7.02333333 L8.68666667,8.06666667 L8.68666667,12.7366667 L7.31333333,12.29 L7.31333333,8.05666667 L6.24,7.01666667 L3.19666667,4.07 L3.19666667,3.00333333 L12.8033333,3.00333333 L12.8033333,4.08 Z" id="形状"></path>
                        </g>
                    </g>
                </g>
            </g>
        </g>
    </g>
</svg>