<?xml version="1.0" encoding="UTF-8"?>
<svg width="24px" height="24px" viewBox="0 0 24 24" version="1.1" xmlns="http://www.w3.org/2000/svg" xmlns:xlink="http://www.w3.org/1999/xlink">
    <title>编组 12</title>
    <g id="高级数据源" stroke="none" stroke-width="1" fill="none" fill-rule="evenodd">
        <g id="数据流编辑页" transform="translate(-24.000000, -251.000000)">
            <g id="编组" transform="translate(0.000000, 53.000000)">
                <g id="1-墨斗通用/Button按钮/3大号带左侧图标/2级线框备份-8" transform="translate(16.000000, 192.000000)">
                    <g id="编组-12" transform="translate(8.000000, 6.000000)">
                        <rect id="矩形" fill="#FFE9ED" x="0" y="0" width="24" height="24" rx="3"></rect>
                        <g id="table-merge-stroke" transform="translate(4.000000, 4.000000)" fill="#D43955" fill-rule="nonzero">
                            <rect id="矩形" opacity="0" x="0" y="0" width="16" height="16"></rect>
                            <path d="M9.63666667,1.66666667 L2.63666667,1.66666667 C2.08438192,1.66666667 1.63666667,2.11438192 1.63666667,2.66666667 L1.63666667,9.66666667 C1.63666667,10.2189514 2.08438192,10.6666667 2.63666667,10.6666667 L4.13666667,10.6666667 C4.41280905,10.6666667 4.63666667,10.442809 4.63666667,10.1666667 L4.63666667,9.83333333 C4.63666667,9.55719095 4.41280905,9.33333333 4.13666667,9.33333333 L2.97,9.33333333 L2.97,3 L9.30333333,3 L9.30333333,9.33333333 L7.80333333,9.33333333 C7.52719095,9.33333333 7.30333333,9.55719095 7.30333333,9.83333333 L7.30333333,10.1666667 C7.30333333,10.442809 7.52719095,10.6666667 7.80333333,10.6666667 L9.63666667,10.6666667 C10.1889514,10.6666667 10.6366667,10.2189514 10.6366667,9.66666667 L10.6366667,2.66666667 C10.6366667,2.11438192 10.1889514,1.66666667 9.63666667,1.66666667 Z M13.3033333,5.33333333 L11.8033333,5.33333333 C11.527191,5.33333333 11.3033333,5.55719095 11.3033333,5.83333333 L11.3033333,6.16666667 C11.3033333,6.44280905 11.527191,6.66666667 11.8033333,6.66666667 L12.97,6.66666667 L12.97,13 L6.63666667,13 L6.63666667,6.66666667 L8.13666667,6.66666667 C8.41280905,6.66666667 8.63666667,6.44280905 8.63666667,6.16666667 L8.63666667,5.83333333 C8.63666667,5.55719095 8.41280905,5.33333333 8.13666667,5.33333333 L6.30333333,5.33333333 C5.75104858,5.33333333 5.30333333,5.78104858 5.30333333,6.33333333 L5.30333333,13.3333333 C5.30333333,13.8856181 5.75104858,14.3333333 6.30333333,14.3333333 L13.3033333,14.3333333 C13.8556181,14.3333333 14.3033333,13.8856181 14.3033333,13.3333333 L14.3033333,6.33333333 C14.3033333,5.78104858 13.8556181,5.33333333 13.3033333,5.33333333 Z" id="形状"></path>
                        </g>
                    </g>
                </g>
            </g>
        </g>
    </g>
</svg>