<?xml version="1.0" encoding="UTF-8"?>
<svg width="24px" height="24px" viewBox="0 0 24 24" version="1.1" xmlns="http://www.w3.org/2000/svg" xmlns:xlink="http://www.w3.org/1999/xlink">
    <title>编组 3</title>
    <g id="高级数据源" stroke="none" stroke-width="1" fill="none" fill-rule="evenodd">
        <g id="数据流编辑页" transform="translate(-24.000000, -109.000000)">
            <g id="编组" transform="translate(0.000000, 53.000000)">
                <g id="1-墨斗通用/Button按钮/3大号带左侧图标/2级线框" transform="translate(16.000000, 50.000000)">
                    <g id="编组-3" transform="translate(8.000000, 6.000000)">
                        <rect id="矩形" fill="#6FBF2C" x="0" y="0" width="24" height="24" rx="3"></rect>
                        <g id="table-import-stroke" transform="translate(4.000000, 4.000000)" fill="#FFFFFF" fill-rule="nonzero">
                            <rect id="矩形" opacity="0" x="0" y="0" width="16" height="16"></rect>
                            <path d="M13.6233333,15.0233333 L5.98,15.0233333 C5.42771525,15.0233333 4.98,14.5756181 4.98,14.0233333 L4.98,11.53 C4.98,11.2538576 5.20385763,11.03 5.48,11.03 L5.81333333,11.03 C6.0894757,11.03 6.31333333,11.2538576 6.31333333,11.53 L6.31333333,13.69 L13.29,13.69 L13.29,2.33333333 L6.31333333,2.33333333 L6.31333333,4.49666667 C6.31338743,4.77079112 6.09407035,4.99455382 5.82,5 L5.48666667,5 C5.2105243,5 4.98666667,4.77614237 4.98666667,4.5 L4.98666667,2.00333333 C4.98666667,1.45104858 5.43438192,1.00333333 5.98666667,1.00333333 L13.6233333,1.00333333 C14.1756181,1.00333333 14.6233333,1.45104858 14.6233333,2.00333333 L14.6233333,14.0366667 C14.6160384,14.5837374 14.1704527,15.0233333 13.6233333,15.0233333 Z M9.66666667,8.66666667 L1.16666667,8.66666667 C0.893106975,8.66669099 0.670314128,8.44686871 0.666622165,8.17333333 L0.666622165,7.84 C0.664883051,7.70624045 0.716773018,7.57734409 0.810735224,7.48212905 C0.90469743,7.38691402 1.03289523,7.33333333 1.16666667,7.33333333 L9.66666667,7.33333333 L9.66666667,8.66666667 Z M7.49666667,11.1033333 L7.26333333,10.8666667 C7.06836441,10.671455 7.06836441,10.3552117 7.26333333,10.16 L9.45,8 L7.27,5.86666667 C7.07503108,5.67145497 7.07503108,5.3552117 7.27,5.16 L7.50333333,4.92 C7.69854503,4.72503108 8.0147883,4.72503108 8.21,4.92 L11,7.62666667 C11.1931525,7.82262659 11.1931525,8.13737341 11,8.33333333 L8.21333333,11.1 C8.11965486,11.1971666 7.99067258,11.2523333 7.85570369,11.2529665 C7.72073481,11.2535888 7.59124494,11.1996243 7.49666667,11.1033333 L7.49666667,11.1033333 Z" id="形状"></path>
                        </g>
                    </g>
                </g>
            </g>
        </g>
    </g>
</svg>