<svg width="32" height="32" xmlns="http://www.w3.org/2000/svg" xmlns:xlink="http://www.w3.org/1999/xlink"><defs><path d="M26 4.058V1.764h-.173l-.607.706c-.087.088-.173.088-.26.088h-.26c-.087 0-.26-.088-.26-.176l-.433-.353c-.087-.088-.174-.176-.26-.176h-.52c-.087 0-.26-.089-.347-.177L21.927.265c-.087-.088-.174-.177-.26-.177L21.06 0h-.173l-.954.353v.529l-.173 1.147c0 .088-.087.176-.087.176l-.173.177c-.087.088-.173.088-.26.088h-.173c-.174 0-.347.088-.347.265l-.173.44c-.087.265.086.53.346.53h.434l.346-.265.26.177c.174.176.087.53-.173.617l-.78.265v.53h-.78l-.173.529-.694-.089c-.173 0-.26.089-.346.177l-.174.264.26.265-.693.794c-.087.088-.173.088-.26.088h-1.04c-.087 0-.173 0-.26.088l-.26.265c-.087.088-.173.088-.26.088h-.78c-.087 0-.173 0-.26-.088l-.52-.441c-.087 0-.087-.088-.173-.088l-1.907-.088c-.087 0-.173-.089-.26-.177L9.36 5.205c-.087-.089-.173-.177-.26-.177h-.087c-.173 0-.346-.176-.346-.352v-.618l-.087-.53c0-.088-.087-.176-.173-.264H7.8a.188.188 0 01-.173-.176l-.174-.53H7.02l-.26.353h-.433v.441H5.46c-.087 0-.26.088-.26.176l-.347.53c-.086.088-.173.176-.346.176h-.434c-.173 0-.346.177-.346.353v.53c0 .088 0 .176-.087.176l-.26.441c-.087.088-.087.176-.26.176l-.953.265H.693c-.086 0-.173.088-.26.088l-.26.353C0 6.881 0 6.97 0 7.057v.441h.347V8.91c0 .088.086.176.173.264l.607.53c.086.088.086.088.086.176l.174.618v1.146H1.04v.706c0 .088.087.176.087.265l.78.705h.433l1.733 1.765.087.088 1.473.618.26-.354h.52c.174 0 .26.089.347.177l.26.53c.087.087.173.176.347.176H7.8c.087 0 .087 0 .173-.089l.867-.529a.26.26 0 01.347 0l.78.353v-.353h.433l.173.53v.793c0 .089 0 .177-.086.265l-.434.441v.441l.347.088c.087 0 .26.089.26.265l.087.265v.617l.866.618a.266.266 0 00.174.088h.173c.173 0 .347-.177.347-.353s.173-.353.346-.353h.867c.087 0 .173 0 .26-.088l.26-.177c.173-.088.347-.088.52.089l.607.705c.086.089.173.177.26.177h1.04l.086.441-.606.706v.44l.433.265c.173.089.433 0 .52-.176l.433-.617c.087-.089.087-.177.087-.265l-.087-.618c0-.176.087-.44.26-.44l.607-.177h.173l.347.088.433-.176.087-.442c0-.176.173-.264.26-.264l.52-.176c.087 0 .087 0 .173-.089l1.647-1.5c.087-.088.087-.088.087-.176l.26-1.323c0-.088.086-.177.173-.265l.433-.264c.087-.088.174-.265.174-.353l-.174-1.588c0-.088-.086-.176-.173-.265l-.347-.264c-.086-.089-.173-.177-.173-.265l-.087-.353c0-.088-.086-.176-.173-.265l-.607-.529c-.173-.088-.173-.353-.086-.53l.346-.617c0-.088.087-.088.174-.176l.693-.265v-.44h-.693c-.087 0-.26.088-.347.176l-.26.353-.26.264-.087-.44-.606-.177L21.58 7.41l.173.265v.529c0 .088 0 .265.087.265l.087.088a.543.543 0 00.52 0l1.213-1.235c.087-.089.087-.177.087-.353l-.087-.353.78-.088c.087 0 .173-.088.26-.088l.693-.706c.087-.088.174-.265.087-.441l-.433-.97.346-.353H26v.088z" id="a"/></defs><g fill="none" fill-rule="evenodd"><g><g transform="translate(3 5)"><mask id="b" fill="#fff"><use xlink:href="#a"/></mask><use fill="#C6C7CD" fill-rule="nonzero" xlink:href="#a"/><path d="M23.887.675c-3.473-.823-1.622 1.942-1.725 2.406-.172.778-1.122.138-1.161.892-.052.987 2.564 2.924 3.335 3.02.972.12.962-1.366 1.598-1.78 1.205-.782 3.064.023 2.935-2.116-.012-.193-.058-.42-.2-.54-.323-.274-.909-.193-1.115-.575-.186-.343.415-1.627-.365-1.866-1.511-.46-1.643.597-2.98.559h-.322z" fill="#707481" fill-rule="nonzero" mask="url(#b)"/></g><path d="M21.753 18.613c0 .089-.086.089-.086.177v.706c0 .088 0 .176.086.264l.347.53.26-.354c0-.088.087-.088.087-.176l.173-1.852h-.433l-.434.705z" fill="#ADBFFD" fill-rule="nonzero" transform="translate(3 5)"/><path d="M10 5.734l-.64-.53c-.087-.088-.173-.176-.26-.176h-.087c-.173 0-.346-.176-.346-.352v-.618l-.087-.53c0-.088-.087-.176-.173-.264H7.8a.188.188 0 01-.173-.176l-.174-.53H7.02l-.26.353h-.433v.441H5.46c-.087 0-.26.088-.26.176l-.347.53c-.086.088-.173.176-.346.176h-.434c-.173 0-.346.177-.346.353v.53c0 .088 0 .176-.087.176l-.26.441c-.087.088-.087.176-.26.176l-.953.265H.693c-.086 0-.173.088-.26.088l-.26.353C0 6.881 0 6.97 0 7.057v.441h.347V8.91c0 .088.086.176.173.264l.607.53c.086.088.086.088.086.176l.174.618v1.146H1.04v.706c0 .088 3.813.265 5.287-1.35 1.473-1.615.365-.767 2.34-2.09C10.64 7.587 10.087 5.822 10 5.734zM11.65 12.385c-1.985-.47-.927 1.11-.986 1.376-.098.444-.64.078-.664.51-.03.563 1.466 1.67 1.906 1.725.556.069.55-.78.913-1.017.69-.447 1.751.013 1.677-1.209-.006-.11-.033-.24-.114-.309-.184-.157-.519-.11-.637-.328-.106-.197.237-.93-.209-1.066-.863-.264-.938.34-1.702.318h-.184z" fill="#707481" fill-rule="nonzero" transform="translate(3 5)"/></g></g></svg>