<?xml version="1.0" encoding="UTF-8"?>
<svg width="32px" height="32px" viewBox="0 0 32 32" version="1.1" xmlns="http://www.w3.org/2000/svg" xmlns:xlink="http://www.w3.org/1999/xlink">
    <title>map-fill备份 3</title>
    <defs>
        <path d="M24,3.74584615 L24,1.62830769 L23.8403077,1.62830769 L23.28,2.28 C23.1996923,2.36123077 23.1203077,2.36123077 23.04,2.36123077 L22.8,2.36123077 C22.7196923,2.36123077 22.56,2.28 22.56,2.19876923 L22.1603077,1.87292308 C22.08,1.79169231 21.9996923,1.71046154 21.9203077,1.71046154 L21.4403077,1.71046154 C21.36,1.71046154 21.2003077,1.62830769 21.12,1.54707692 L20.2403077,0.244615385 C20.16,0.163384615 20.0796923,0.0812307692 20.0003077,0.0812307692 L19.44,0 L19.2803077,0 L18.3996923,0.325846154 L18.3996923,0.814153846 L18.24,1.87292308 C18.24,1.95415385 18.1596923,2.03538462 18.1596923,2.03538462 L18,2.19876923 C17.9196923,2.28 17.8403077,2.28 17.76,2.28 L17.6003077,2.28 C17.4396923,2.28 17.28,2.36123077 17.28,2.52461538 L17.1203077,2.93076923 C17.04,3.17538462 17.1996923,3.42 17.4396923,3.42 L17.8403077,3.42 L18.1596923,3.17538462 L18.3996923,3.33876923 C18.5603077,3.50123077 18.48,3.828 18.24,3.90830769 L17.52,4.15292308 L17.52,4.64215385 L16.8,4.64215385 L16.6403077,5.13046154 L15.9996923,5.04830769 C15.84,5.04830769 15.7596923,5.13046154 15.6803077,5.21169231 L15.5196923,5.45538462 L15.7596923,5.7 L15.12,6.43292308 C15.0396923,6.51415385 14.9603077,6.51415385 14.88,6.51415385 L13.92,6.51415385 C13.8396923,6.51415385 13.7603077,6.51415385 13.68,6.59538462 L13.44,6.84 C13.3596923,6.92123077 13.2803077,6.92123077 13.2,6.92123077 L12.48,6.92123077 C12.3996923,6.92123077 12.3203077,6.92123077 12.24,6.84 L11.76,6.43292308 C11.6796923,6.43292308 11.6796923,6.35169231 11.6003077,6.35169231 L9.84,6.27046154 C9.75969231,6.27046154 9.68030769,6.18830769 9.6,6.10707692 L8.64,4.80461538 C8.55969231,4.72246154 8.48030769,4.64123077 8.4,4.64123077 L8.31969231,4.64123077 C8.16,4.64123077 8.00030769,4.47876923 8.00030769,4.31630769 L8.00030769,3.74584615 L7.92,3.25661538 C7.92,3.17538462 7.83969231,3.09415385 7.76030769,3.01292308 L7.2,3.01292308 C7.2704498,3.05024018 7.30641175,3.13075683 7.28718575,3.20812673 C7.26795975,3.28549662 7.19849213,3.33981459 7.11876923,3.33981459 C7.03904633,3.33981459 6.96957871,3.28549662 6.95035271,3.20812673 C6.93112671,3.13075683 6.96708866,3.05024018 7.03753846,3.01292308 L6.87692308,2.52369231 L6.48,2.52369231 L6.24,2.84953846 L5.84030769,2.84953846 L5.84030769,3.25661538 L5.04,3.25661538 C4.95969231,3.25661538 4.8,3.33784615 4.8,3.41907692 L4.47969231,3.90830769 C4.40030769,3.98953846 4.32,4.07076923 4.16030769,4.07076923 L3.75969231,4.07076923 C3.6,4.07076923 3.44030769,4.23415385 3.44030769,4.39661538 L3.44030769,4.88584615 C3.44030769,4.96707692 3.44030769,5.04830769 3.36,5.04830769 L3.12,5.45538462 C3.03969231,5.53661538 3.03969231,5.61784615 2.88,5.61784615 L2.00030769,5.86246154 L0.639692308,5.86246154 C0.560307692,5.86246154 0.48,5.94369231 0.399692308,5.94369231 L0.159692308,6.26953846 C0,6.35169231 0,6.43384615 0,6.51415385 L0,6.92123077 L0.320307692,6.92123077 L0.320307692,8.22461538 C0.320307692,8.30584615 0.399692308,8.38707692 0.48,8.46830769 L1.04030769,8.95753846 C1.11969231,9.03876923 1.11969231,9.03876923 1.11969231,9.12 L1.28030769,9.69046154 L1.28030769,10.7483077 L0.96,10.7483077 L0.96,11.4 C0.96,11.4812308 1.04030769,11.5624615 1.04030769,11.6446154 L1.76030769,12.2953846 L2.16,12.2953846 L3.75969231,13.9246154 L3.84,14.0058462 L5.19969231,14.5763077 L5.43969231,14.2495385 L5.91969231,14.2495385 C6.08030769,14.2495385 6.15969231,14.3316923 6.24,14.4129231 L6.48,14.9021538 C6.56030769,14.9824615 6.63969231,15.0646154 6.80030769,15.0646154 L7.2,15.0646154 C7.28030769,15.0646154 7.28030769,15.0646154 7.35969231,14.9824615 L8.16,14.4941538 L8.88,14.82 L8.88,14.4941538 L9.27969231,14.4941538 L9.43938462,14.9833846 L9.43938462,15.7153846 C9.43938462,15.7975385 9.43938462,15.8787692 9.36,15.96 L8.95938462,16.3670769 L8.95938462,16.7741538 L9.27969231,16.8553846 C9.36,16.8553846 9.51969231,16.9375385 9.51969231,17.1 L9.6,17.3446154 L9.6,17.9141538 L10.3993846,18.4846154 L10.5590769,18.4846154 C10.7187692,18.4846154 10.8793846,18.3212308 10.8793846,18.1587692 C10.8793846,17.9963077 11.0390769,17.8329231 11.1987692,17.8329231 L11.9990769,17.8329231 C12.0793846,17.8329231 12.1587692,17.8329231 12.2390769,17.7516923 L12.4790769,17.5883077 C12.6387692,17.5070769 12.7993846,17.5070769 12.9590769,17.6704615 L13.5193846,18.3212308 C13.5987692,18.4033846 13.6790769,18.4846154 13.7593846,18.4846154 L14.7193846,18.4846154 L14.7987692,18.8916923 L14.2393846,19.5433846 L14.2393846,19.9495385 L14.6390769,20.1941538 C14.7987692,20.2763077 15.0387692,20.1941538 15.1190769,20.0316923 L15.5187692,19.4621538 C15.5990769,19.38 15.5990769,19.2987692 15.5990769,19.2175385 L15.5187692,18.6470769 C15.5187692,18.4846154 15.5990769,18.2409231 15.7587692,18.2409231 L16.3190769,18.0775385 L16.4787692,18.0775385 L16.7990769,18.1587692 L17.1987692,17.9963077 L17.2790769,17.5883077 C17.2790769,17.4258462 17.4387692,17.3446154 17.5190769,17.3446154 L17.9990769,17.1821538 C18.0793846,17.1821538 18.0793846,17.1821538 18.1587692,17.1 L19.6790769,15.7153846 C19.7593846,15.6341538 19.7593846,15.6341538 19.7593846,15.5529231 L19.9993846,14.3316923 C19.9993846,14.2504615 20.0787692,14.1683077 20.1590769,14.0870769 L20.5587692,13.8433846 C20.6390769,13.7621538 20.7193846,13.5987692 20.7193846,13.5175385 L20.5587692,12.0516923 C20.5587692,11.9704615 20.4793846,11.8892308 20.3990769,11.8070769 L20.0787692,11.5633846 C19.9993846,11.4812308 19.9190769,11.4 19.9190769,11.3187692 L19.8387692,10.9929231 C19.8387692,10.9116923 19.7593846,10.8304615 19.6790769,10.7483077 L19.1187692,10.26 C18.9590769,10.1787692 18.9590769,9.93415385 19.0393846,9.77076923 L19.3587692,9.20123077 C19.3587692,9.12 19.4390769,9.12 19.5193846,9.03876923 L20.1590769,8.79415385 L20.1590769,8.388 L19.5193846,8.388 C19.4390769,8.388 19.2793846,8.46923077 19.1990769,8.55046154 L18.9590769,8.87630769 L18.7190769,9.12 L18.6387692,8.71384615 L18.0793846,8.55046154 L19.92,6.84 L20.0796923,7.08461538 L20.0796923,7.57292308 C20.0796923,7.65415385 20.0796923,7.81753846 20.16,7.81753846 L20.2403077,7.89876923 L21.36,6.75876923 C21.4403077,6.67661538 21.4403077,6.59538462 21.4403077,6.43292308 L21.36,6.10707692 L22.08,6.02584615 C22.1603077,6.02584615 22.2396923,5.94461538 22.32,5.94461538 L22.9596923,5.29292308 C23.04,5.21169231 23.1203077,5.04830769 23.04,4.88584615 L22.6403077,3.99046154 L22.9596923,3.66461538 L24,3.66461538 L24,3.74584615 Z" id="path-1"></path>
    </defs>
    <g id="map-fill备份-3" stroke="none" stroke-width="1" fill="none" fill-rule="evenodd">
        <g id="编组-11备份-3">
            <g id="编组-9">
                <g id="编组-33备份" transform="translate(0.000000, 0.000000)">
                    <rect id="矩形备份-29" x="2.84217094e-15" y="2.84217094e-15" width="32" height="32" rx="4"></rect>
                </g>
                <g id="map-fill-(3)" transform="translate(4.000000, 6.000000)">
                    <g id="编组">
                        <g id="a-link" fill="#ADBFFD" fill-rule="nonzero">
                            <path d="M24,3.74584615 L24,1.62830769 L23.8403077,1.62830769 L23.28,2.28 C23.1996923,2.36123077 23.1203077,2.36123077 23.04,2.36123077 L22.8,2.36123077 C22.7196923,2.36123077 22.56,2.28 22.56,2.19876923 L22.1603077,1.87292308 C22.08,1.79169231 21.9996923,1.71046154 21.9203077,1.71046154 L21.4403077,1.71046154 C21.36,1.71046154 21.2003077,1.62830769 21.12,1.54707692 L20.2403077,0.244615385 C20.16,0.163384615 20.0796923,0.0812307692 20.0003077,0.0812307692 L19.44,0 L19.2803077,0 L18.3996923,0.325846154 L18.3996923,0.814153846 L18.24,1.87292308 C18.24,1.95415385 18.1596923,2.03538462 18.1596923,2.03538462 L18,2.19876923 C17.9196923,2.28 17.8403077,2.28 17.76,2.28 L17.6003077,2.28 C17.4396923,2.28 17.28,2.36123077 17.28,2.52461538 L17.1203077,2.93076923 C17.04,3.17538462 17.1996923,3.42 17.4396923,3.42 L17.8403077,3.42 L18.1596923,3.17538462 L18.3996923,3.33876923 C18.5603077,3.50123077 18.48,3.828 18.24,3.90830769 L17.52,4.15292308 L17.52,4.64215385 L16.8,4.64215385 L16.6403077,5.13046154 L15.9996923,5.04830769 C15.84,5.04830769 15.7596923,5.13046154 15.6803077,5.21169231 L15.5196923,5.45538462 L15.7596923,5.7 L15.12,6.43292308 C15.0396923,6.51415385 14.9603077,6.51415385 14.88,6.51415385 L13.92,6.51415385 C13.8396923,6.51415385 13.7603077,6.51415385 13.68,6.59538462 L13.44,6.84 C13.3596923,6.92123077 13.2803077,6.92123077 13.2,6.92123077 L12.48,6.92123077 C12.3996923,6.92123077 12.3203077,6.92123077 12.24,6.84 L11.76,6.43292308 C11.6796923,6.43292308 11.6796923,6.35169231 11.6003077,6.35169231 L9.84,6.27046154 C9.75969231,6.27046154 9.68030769,6.18830769 9.6,6.10707692 L8.64,4.80461538 C8.55969231,4.72246154 8.48030769,4.64123077 8.4,4.64123077 L8.31969231,4.64123077 C8.16,4.64123077 8.00030769,4.47876923 8.00030769,4.31630769 L8.00030769,3.74584615 L7.92,3.25661538 C7.92,3.17538462 7.83969231,3.09415385 7.76030769,3.01292308 L7.2,3.01292308 C7.2704498,3.05024018 7.30641175,3.13075683 7.28718575,3.20812673 C7.26795975,3.28549662 7.19849213,3.33981459 7.11876923,3.33981459 C7.03904633,3.33981459 6.96957871,3.28549662 6.95035271,3.20812673 C6.93112671,3.13075683 6.96708866,3.05024018 7.03753846,3.01292308 L6.87692308,2.52369231 L6.48,2.52369231 L6.24,2.84953846 L5.84030769,2.84953846 L5.84030769,3.25661538 L5.04,3.25661538 C4.95969231,3.25661538 4.8,3.33784615 4.8,3.41907692 L4.47969231,3.90830769 C4.40030769,3.98953846 4.32,4.07076923 4.16030769,4.07076923 L3.75969231,4.07076923 C3.6,4.07076923 3.44030769,4.23415385 3.44030769,4.39661538 L3.44030769,4.88584615 C3.44030769,4.96707692 3.44030769,5.04830769 3.36,5.04830769 L3.12,5.45538462 C3.03969231,5.53661538 3.03969231,5.61784615 2.88,5.61784615 L2.00030769,5.86246154 L0.639692308,5.86246154 C0.560307692,5.86246154 0.48,5.94369231 0.399692308,5.94369231 L0.159692308,6.26953846 C0,6.35169231 0,6.43384615 0,6.51415385 L0,6.92123077 L0.320307692,6.92123077 L0.320307692,8.22461538 C0.320307692,8.30584615 0.399692308,8.38707692 0.48,8.46830769 L1.04030769,8.95753846 C1.11969231,9.03876923 1.11969231,9.03876923 1.11969231,9.12 L1.28030769,9.69046154 L1.28030769,10.7483077 L0.96,10.7483077 L0.96,11.4 C0.96,11.4812308 1.04030769,11.5624615 1.04030769,11.6446154 L1.76030769,12.2953846 L2.16,12.2953846 L3.75969231,13.9246154 L3.84,14.0058462 L5.19969231,14.5763077 L5.43969231,14.2495385 L5.91969231,14.2495385 C6.08030769,14.2495385 6.15969231,14.3316923 6.24,14.4129231 L6.48,14.9021538 C6.56030769,14.9824615 6.63969231,15.0646154 6.80030769,15.0646154 L7.2,15.0646154 C7.28030769,15.0646154 7.28030769,15.0646154 7.35969231,14.9824615 L8.16,14.4941538 L8.88,14.82 L8.88,14.4941538 L9.27969231,14.4941538 L9.43938462,14.9833846 L9.43938462,15.7153846 C9.43938462,15.7975385 9.43938462,15.8787692 9.36,15.96 L8.95938462,16.3670769 L8.95938462,16.7741538 L9.27969231,16.8553846 C9.36,16.8553846 9.51969231,16.9375385 9.51969231,17.1 L9.6,17.3446154 L9.6,17.9141538 L10.3993846,18.4846154 L10.5590769,18.4846154 C10.7187692,18.4846154 10.8793846,18.3212308 10.8793846,18.1587692 C10.8793846,17.9963077 11.0390769,17.8329231 11.1987692,17.8329231 L11.9990769,17.8329231 C12.0793846,17.8329231 12.1587692,17.8329231 12.2390769,17.7516923 L12.4790769,17.5883077 C12.6387692,17.5070769 12.7993846,17.5070769 12.9590769,17.6704615 L13.5193846,18.3212308 C13.5987692,18.4033846 13.6790769,18.4846154 13.7593846,18.4846154 L14.7193846,18.4846154 L14.7987692,18.8916923 L14.2393846,19.5433846 L14.2393846,19.9495385 L14.6390769,20.1941538 C14.7987692,20.2763077 15.0387692,20.1941538 15.1190769,20.0316923 L15.5187692,19.4621538 C15.5990769,19.38 15.5990769,19.2987692 15.5990769,19.2175385 L15.5187692,18.6470769 C15.5187692,18.4846154 15.5990769,18.2409231 15.7587692,18.2409231 L16.3190769,18.0775385 L16.4787692,18.0775385 L16.7990769,18.1587692 L17.1987692,17.9963077 L17.2790769,17.5883077 C17.2790769,17.4258462 17.4387692,17.3446154 17.5190769,17.3446154 L17.9990769,17.1821538 C18.0793846,17.1821538 18.0793846,17.1821538 18.1587692,17.1 L19.6790769,15.7153846 C19.7593846,15.6341538 19.7593846,15.6341538 19.7593846,15.5529231 L19.9993846,14.3316923 C19.9993846,14.2504615 20.0787692,14.1683077 20.1590769,14.0870769 L20.5587692,13.8433846 C20.6390769,13.7621538 20.7193846,13.5987692 20.7193846,13.5175385 L20.5587692,12.0516923 C20.5587692,11.9704615 20.4793846,11.8892308 20.3990769,11.8070769 L20.0787692,11.5633846 C19.9993846,11.4812308 19.9190769,11.4 19.9190769,11.3187692 L19.8387692,10.9929231 C19.8387692,10.9116923 19.7593846,10.8304615 19.6790769,10.7483077 L19.1187692,10.26 C18.9590769,10.1787692 18.9590769,9.93415385 19.0393846,9.77076923 L19.3587692,9.20123077 C19.3587692,9.12 19.4390769,9.12 19.5193846,9.03876923 L20.1590769,8.79415385 L20.1590769,8.388 L19.5193846,8.388 C19.4390769,8.388 19.2793846,8.46923077 19.1990769,8.55046154 L18.9590769,8.87630769 L18.7190769,9.12 L18.6387692,8.71384615 L18.0793846,8.55046154 L19.92,6.84 L20.0796923,7.08461538 L20.0796923,7.57292308 C20.0796923,7.65415385 20.0796923,7.81753846 20.16,7.81753846 L20.2403077,7.89876923 L21.36,6.75876923 C21.4403077,6.67661538 21.4403077,6.59538462 21.4403077,6.43292308 L21.36,6.10707692 L22.08,6.02584615 C22.1603077,6.02584615 22.2396923,5.94461538 22.32,5.94461538 L22.9596923,5.29292308 C23.04,5.21169231 23.1203077,5.04830769 23.04,4.88584615 L22.6403077,3.99046154 L22.9596923,3.66461538 L24,3.66461538 L24,3.74584615 Z" id="a"></path>
                        </g>
                        <g id="Clipped">
                            <mask id="mask-2" fill="white">
                                <use xlink:href="#path-1"></use>
                            </mask>
                            <g id="a"></g>
                        </g>
                    </g>
                    <path d="M20.0796923,17.1812308 C20.0796923,17.2633846 20.0003077,17.2633846 20.0003077,17.3446154 L20.0003077,17.9963077 C20.0003077,18.0775385 20.0003077,18.1587692 20.0796923,18.24 L20.4,18.7292308 L20.64,18.4024615 C20.64,18.3212308 20.7203077,18.3212308 20.7203077,18.24 L20.88,16.5304615 L20.4803077,16.5304615 L20.0796923,17.1812308 Z" id="路径" fill="#ADBFFD" fill-rule="nonzero"></path>
                </g>
            </g>
            <circle id="椭圆形" fill="#315EFB" cx="23.5" cy="10.5" r="1.5"></circle>
            <circle id="椭圆形备份-3" fill="#315EFB" cx="14" cy="21" r="2"></circle>
            <circle id="椭圆形备份-5" fill="#315EFB" cx="10.5" cy="12.5" r="3.5"></circle>
            <circle id="椭圆形备份-4" fill="#315EFB" cx="22" cy="18" r="1"></circle>
        </g>
    </g>
</svg>